<?xml version="1.0" encoding="UTF-8"?>
<svg xmlns="http://www.w3.org/2000/svg" xmlns:xlink="http://www.w3.org/1999/xlink" width="20pt" height="20pt" viewBox="0 0 20 20" version="1.1">
<g id="surface1">
<path style=" stroke:none;fill-rule:nonzero;fill:rgb(0%,0%,0%);fill-opacity:1;" d="M 8.074219 10.003906 L 15.554688 2.523438 C 15.761719 2.316406 15.875 2.042969 15.875 1.75 C 15.875 1.457031 15.761719 1.179688 15.554688 0.976562 L 14.898438 0.320312 C 14.695312 0.113281 14.417969 0 14.125 0 C 13.832031 0 13.558594 0.113281 13.351562 0.320312 L 4.445312 9.226562 C 4.238281 9.433594 4.125 9.710938 4.125 10.003906 C 4.125 10.296875 4.238281 10.574219 4.445312 10.78125 L 13.34375 19.679688 C 13.550781 19.886719 13.824219 20 14.117188 20 C 14.410156 20 14.6875 19.886719 14.890625 19.679688 L 15.546875 19.023438 C 15.972656 18.597656 15.972656 17.902344 15.546875 17.476562 Z M 8.074219 10.003906 "/>
</g>
</svg>
