<svg width="61" height="42" viewBox="0 0 61 42" fill="none" xmlns="http://www.w3.org/2000/svg">
<path d="M12.8605 37.5552C12.9647 35.1007 15.0408 33.1108 17.4976 33.1108H52.6296C55.0864 33.1108 56.9935 35.1007 56.8893 37.5552C56.7851 40.0098 54.709 41.9996 52.2522 41.9996H17.1202C14.6634 41.9996 12.7563 40.0098 12.8605 37.5552Z" fill="#F3A945" fill-opacity="0.5"/>
<path d="M53.6028 25.312C53.6689 23.7547 54.9861 22.4922 56.5449 22.4922C58.1036 22.4922 59.3137 23.7547 59.2475 25.312L59.2174 26.0215C59.1513 27.5789 57.8341 28.8413 56.2753 28.8413C54.7166 28.8413 53.5066 27.5789 53.5727 26.0215L53.6028 25.312Z" fill="#F3A945" fill-opacity="0.5"/>
<path d="M29.1114 2.81982C29.1775 1.26247 30.4947 0 32.0534 0C33.6122 0 34.8222 1.26248 34.7561 2.81982L34.726 3.52932C34.6598 5.08666 33.3426 6.34914 31.7839 6.34914C30.2251 6.34914 29.0151 5.08666 29.0812 3.52932L29.1114 2.81982Z" fill="#F3A945" fill-opacity="0.5"/>
<path d="M1.11149 15.8198C1.1776 14.2625 2.49481 13 4.05356 13C5.6123 13 6.82232 14.2625 6.7562 15.8198L6.72608 16.5293C6.65997 18.0867 5.34276 19.3491 3.78401 19.3491C2.22527 19.3491 1.01525 18.0867 1.08137 16.5293L1.11149 15.8198Z" fill="#F3A945" fill-opacity="0.5"/>
<rect width="44.0288" height="8.8968" rx="4.4484" transform="matrix(1 0 -0.0424159 0.9991 7.45508 22)" fill="#F3A945" fill-opacity="0.5"/>
<rect width="44.0288" height="8.8968" rx="4.4484" transform="matrix(1 0 -0.0424159 0.9991 11.9235 9.4895)" fill="#F3A945" fill-opacity="0.5"/>
<path d="M47.6052 28.0381C47.5283 26.9475 47.0838 25.9214 46.3535 25.1229C46.2246 24.9819 46.0148 24.9348 45.8686 24.8089L45.81 24.7585C45.0165 24.0757 43.9284 23.9459 43.0865 24.5681L38.4417 28.0007C37.4297 28.7486 36.7056 29.7064 35.8934 30.6594C35.6208 30.9792 35.1642 31.2114 34.9166 31.5515C34.608 31.9754 34.3193 32.4146 34.0517 32.8678C36.232 33.0422 38.4253 32.7871 40.5074 32.1168L46.0554 30.3307C47.0381 30.0144 47.6778 29.068 47.6052 28.0381V28.0381Z" fill="#FAF8F8"/>
<path d="M46.3534 25.1229C46.259 26.3379 45.51 27.4313 44.3525 27.9431L39.0207 30.2996C37.6981 30.8845 36.3247 31.3029 34.9166 31.5516C35.9023 30.1974 37.0897 28.9995 38.4417 28.0009L43.0863 24.5681C43.9283 23.9457 45.0885 23.9892 45.8823 24.6716L45.9404 24.7222C46.0869 24.8482 46.2247 24.982 46.3534 25.1229Z" fill="#F0E9E6"/>
<path d="M45.1961 24.4645C45.0172 23.4536 44.522 22.5331 43.7918 21.8302C43.6071 21.6524 43.3176 21.6494 43.1041 21.5015L43.0406 21.4575C42.1801 20.8613 41.1114 20.7789 40.3391 21.4857L36.4788 25.7381C35.2825 26.8329 33.8565 27.7436 33.0327 29.1329C32.7352 29.6345 32.4641 30.1526 32.2207 30.6851C34.4075 30.6306 36.5623 30.1476 38.563 29.2632L43.8943 26.9068C44.8386 26.4894 45.376 25.4813 45.1961 24.4645V24.4645Z" fill="#FAF8F8"/>
<path d="M43.7915 21.8307C43.697 22.8847 43.1064 23.8578 42.1429 24.4264L37.1718 27.3593C35.863 28.1313 34.4776 28.725 33.0329 29.1331C33.8561 27.7436 34.8822 26.4799 36.0782 25.3852L40.3394 21.486C41.1115 20.779 42.2698 20.7007 43.1303 21.2969L43.1941 21.3406C43.4075 21.4883 43.607 21.6519 43.7915 21.8307V21.8307Z" fill="#F0E9E6"/>
<path d="M39.9972 18.0742C40.3106 18.2341 40.7455 18.2905 41.0128 18.5107C41.7222 19.095 42.2556 19.8751 42.5397 20.7644L42.5632 20.838C42.8815 21.8345 42.468 22.9188 41.5671 23.4503L36.596 26.3832C34.6966 27.5039 32.5913 28.2311 30.4051 28.5216C30.621 27.8738 30.8759 27.2411 31.1679 26.6269C31.8108 25.275 32.9435 24.3397 33.9265 23.2025L37.4258 18.4688C38.1005 17.6882 39.0783 17.6052 39.9972 18.0742V18.0742Z" fill="#FAF8F8"/>
<path d="M41.0124 18.5111C40.9149 19.3983 40.4637 20.2334 39.7103 20.8124L35.1303 24.3322C33.905 25.2737 32.5783 26.0414 31.1681 26.6271C31.3436 26.2581 31.5322 25.8964 31.7338 25.5415C32.2715 24.5957 32.9017 23.7028 33.6166 22.8759L37.4258 18.4692C38.1003 17.6882 39.2209 17.4695 40.1397 17.9383C40.4527 18.0982 40.7452 18.2904 41.0124 18.5111Z" fill="#F0E9E6"/>
<path d="M36.671 14.9374L36.7589 14.9257C37.2519 15.1055 37.8783 15.0501 38.2812 15.3709C38.8658 15.8364 39.3399 16.4359 39.6582 17.1276L39.6905 17.1978C40.1282 18.1489 39.8497 19.2762 39.0197 19.9141L34.4398 23.4336C32.6898 24.7784 30.6873 25.7575 28.5513 26.3126C28.6886 25.6334 28.8676 24.9649 29.0869 24.3107C29.56 22.8993 30.6324 21.7012 31.4647 20.4597L34.2989 15.4712C34.8738 14.6136 35.7011 14.5837 36.671 14.9374V14.9374Z" fill="#FAF8F8"/>
<path d="M38.2816 15.3706C38.2059 16.1567 37.8526 16.9129 37.2418 17.4929L33.0549 21.472C31.8605 22.6066 30.532 23.5573 29.0872 24.3106C29.2136 23.9321 29.3543 23.5583 29.5077 23.1901C29.9271 22.185 30.4436 21.2213 31.053 20.313L34.2993 15.4709C34.8741 14.6135 35.9599 14.2593 36.9302 14.6131C37.4234 14.7928 37.8786 15.0498 38.2816 15.3706Z" fill="#F0E9E6"/>
<path d="M33.6059 11.7184L33.635 11.8065C34.1963 11.9468 34.9162 11.9977 35.3845 12.3184C35.9571 12.7106 36.4439 13.2257 36.8053 13.834L36.8447 13.9005C37.3794 14.8005 37.2203 15.9507 36.4615 16.6718L32.2747 20.6506C31.0247 21.8385 29.598 22.8205 28.0483 23.563C27.6147 23.7707 27.5352 23.5508 27.0835 23.7203C27.0835 23.7203 27.6961 19.8348 28.7177 17.9005L31.3799 13.0225C31.8621 12.1095 32.6044 11.4681 33.6059 11.7184V11.7184Z" fill="#FAF8F8"/>
<path d="M35.5212 12.4164C35.3943 12.3724 35.2651 12.3343 35.1344 12.3013C34.1328 12.051 33.0895 12.517 32.6076 13.4297L29.8856 18.5838C29.3751 19.5514 28.9613 20.5639 28.6494 21.6069C28.4652 22.2237 28.3164 22.8516 28.2051 23.4868C27.7215 23.7248 27.2262 23.9391 26.72 24.1291C26.8232 23.0406 27.0331 21.967 27.3444 20.924C27.6563 19.881 28.0701 18.8686 28.5807 17.901L31.3027 12.7469C31.7846 11.8342 32.8278 11.3681 33.8294 11.6184C34.4459 11.773 35.0197 12.0456 35.5212 12.4164V12.4164Z" fill="#F0E9E6"/>
<path d="M20.0049 37.0592L20.2166 37.3116C21.0055 38.2518 21.9563 38.837 23.0912 38.914C24.1694 38.9872 25.2763 38.6596 26.1695 37.9099L27.5794 36.7267L25.167 32.7677L21.9318 29.9519L20.5084 31.0825C18.6751 32.621 18.4665 35.2257 20.0049 37.0592V37.0592Z" fill="#FAF8F8"/>
<path d="M23.0913 38.9137C21.9562 38.8371 20.8537 38.3158 20.0648 37.3756L19.8527 37.1233C18.3146 35.2901 18.5537 32.5563 20.3868 31.0174L21.797 29.8345L22.4978 30.0271L22.5694 30.7551L22.0798 31.1655C20.2466 32.7044 20.0075 35.4382 21.5456 37.2714L23.0913 38.9137Z" fill="#F0E9E6"/>
<path d="M21.8082 29.7756L27.6139 36.6794C27.8149 36.9191 28.1722 36.9503 28.4119 36.7492L28.8264 36.4511L29.6305 35.7763C29.7024 35.716 29.7118 35.6088 29.6514 35.5369L24.0801 28.8967L23.2901 28.0394C23.2298 27.9675 23.1226 27.9581 23.0507 28.0185L21.878 28.9774C21.6383 29.1785 21.6071 29.5359 21.8082 29.7756V29.7756Z" fill="#88CD0C"/>
<path d="M23.2764 29.5714L24.0803 28.8968L23.2883 27.9528C23.228 27.881 23.1209 27.8716 23.0491 27.9319L22.2452 28.6066L21.8113 28.9706C21.5717 29.1717 21.5404 29.5291 21.7415 29.7687L22.2785 30.4088L27.5947 36.7414C27.7951 36.98 28.1505 37.0121 28.3903 36.813L28.8264 36.4511L23.2555 29.8108C23.1951 29.7389 23.2045 29.6317 23.2764 29.5714V29.5714Z" fill="#72AB0B"/>
<path d="M48.0289 28.0081C47.899 26.3799 47.014 24.7325 45.5136 23.9444C45.1461 22.6028 44.2339 21.3796 42.9683 20.7106C42.565 19.3642 41.5435 18.1411 40.2487 17.5167C39.8998 16.2289 38.7707 15.005 37.5081 14.4065C37.4605 14.2132 37.3374 13.884 37.1705 13.617C36.4607 12.4222 35.2804 11.5435 33.9323 11.2065C32.7376 10.9077 31.5019 11.4597 30.9268 12.5486L28.2047 17.7028C27.1718 19.6584 26.5355 21.7637 26.3105 23.9618L23.4544 27.81C23.3112 27.8076 23.1736 27.8556 23.063 27.9486L21.5217 29.242C21.3999 29.3441 21.3252 29.4876 21.3114 29.6459C21.3101 29.6601 21.3099 29.6743 21.3097 29.6885L20.1137 30.6922C18.1039 32.3788 17.8407 35.3864 19.5272 37.3965L19.739 37.6489C21.4021 39.6349 24.4226 39.9325 26.4425 38.2354L27.6388 37.2315C27.7697 37.2494 27.8981 37.2365 28.1149 37.1006L29.6562 35.8071C29.7672 35.7141 29.8384 35.5866 29.8608 35.4449L34.1287 33.2989C36.338 33.4614 38.5273 33.2006 40.6375 32.5213L40.9372 32.4248C41.1606 32.3529 41.2834 32.1135 41.2115 31.8902C41.1396 31.6668 40.9003 31.544 40.6769 31.6159L40.3773 31.7124C38.5647 32.2959 36.6907 32.5553 34.7968 32.4859C35.2827 31.7634 35.8706 31.0223 36.3091 30.5138C37.1339 30.2888 37.9437 30.0017 38.7348 29.6521L44.066 27.2956C44.9919 26.8864 45.5864 26.0063 45.6497 25.0325C46.5047 25.7541 47.1079 26.9132 47.1814 28.068C47.2404 28.905 46.7238 29.6692 45.9252 29.9264L42.5697 31.0066C42.3464 31.0785 42.2236 31.3179 42.2955 31.5412C42.3495 31.709 42.4979 31.82 42.6631 31.8344C42.7178 31.8392 42.7745 31.8334 42.8301 31.8155L46.1855 30.7353C47.3576 30.3578 48.1157 29.2364 48.0289 28.0081ZM39.2724 17.3052C39.662 18.0523 39.4567 19.0483 38.761 19.5771L36.8037 21.0812C36.6177 21.2241 36.5827 21.4909 36.7257 21.677C36.8752 21.8062 36.9974 21.9303 37.3214 21.755L39.2787 20.2509C39.85 19.8119 40.2008 19.1861 40.2966 18.5172C41.1617 19.0662 41.8218 19.9134 42.1349 20.8936C42.4302 21.6819 42.1054 22.6446 41.3511 23.0843L36.38 26.0173C34.7224 26.9953 32.9309 27.6583 31.0454 27.9925C31.4073 27.0475 31.8583 26.1446 32.4123 25.2508C33.2086 24.8219 33.9723 24.3286 34.6987 23.7705L35.7521 22.9609C35.9382 22.8179 35.9731 22.5512 35.8302 22.3651C35.6872 22.179 35.4205 22.1441 35.2345 22.2871L34.181 23.0966C32.6535 24.2705 30.9547 25.1476 29.1223 25.7095C29.3602 24.7495 29.6858 23.8227 30.108 22.8961C30.9813 22.3309 31.8033 21.6847 32.5673 20.9586L36.7541 16.9798C37.2104 16.5462 37.4847 15.9883 37.5637 15.4039C38.3109 15.8648 38.9174 16.5336 39.2724 17.3052V17.3052ZM31.8902 33.4733L30.7748 32.146L32.1262 31.2561L33.3632 32.7326L31.8902 33.4733ZM29.4882 34.6812L28.5759 33.5939L30.0602 32.6165L31.1099 33.8657L29.4882 34.6812ZM25.22 26.8568L26.2716 28.1082L25.0546 29.397L24.142 28.3092L25.22 26.8568ZM30.3432 29.1279L31.5768 30.6004L30.2243 31.491L29.1089 30.1637L30.3432 29.1279ZM28.5623 29.5131L27.4093 28.1411L28.5258 26.9587L29.7975 28.4766L28.5623 29.5131ZM30.2506 27.6942L29.2884 26.5457C29.8934 26.3636 30.4852 26.1501 31.0616 25.9035C30.7548 26.4889 30.4837 27.087 30.2506 27.6942ZM28.3254 25.3963L27.4152 24.3099C27.9188 24.101 28.4098 23.8694 28.8873 23.6149C28.6654 24.2014 28.4792 24.7928 28.3254 25.3963ZM26.7328 24.8185L27.9763 26.3028L26.8589 27.4862L25.7405 26.1554L26.7328 24.8185ZM26.8219 28.7631L27.9113 30.0594L26.5611 31.1925L25.6045 30.0524L26.8219 28.7631ZM28.4579 30.7099L29.5097 31.9615L28.026 32.9386L27.1072 31.8435L28.4579 30.7099ZM32.117 29.922L31.1997 28.8272C31.806 28.7195 32.4032 28.5799 32.9898 28.4081C32.6686 28.9027 32.3788 29.4052 32.117 29.922V29.922ZM28.956 18.0996L31.6781 12.9454C32.0685 12.2286 32.8959 11.8238 33.7263 12.0309C34.8561 12.3133 35.8453 13.0496 36.4401 14.0511C36.9043 14.75 36.8052 15.7653 36.1689 16.3637L31.9822 20.3425C30.5858 21.6695 28.9878 22.7194 27.2243 23.4697C27.4841 21.5895 28.0654 19.786 28.956 18.0996V18.0996ZM27.7641 36.2857L26.6349 34.9398C26.4841 34.7601 26.2161 34.7366 26.0364 34.8875C25.8566 35.0383 25.8332 35.3063 25.984 35.486L26.981 36.6743L25.8965 37.5844C24.2455 38.9698 21.7753 38.7537 20.39 37.1026L20.1782 36.8502C18.7929 35.1991 19.009 32.7285 20.66 31.343L21.7445 30.4329L24.7219 33.9817C24.8727 34.1615 25.1407 34.185 25.3204 34.0341C25.5001 33.8833 25.5236 33.6152 25.3727 33.4355L22.263 29.7291L23.4138 28.7634L28.9149 35.32L27.7641 36.2857ZM33.993 32.1612L33.0773 31.0682C33.7109 31.0215 34.3383 30.9388 34.9588 30.8229C34.6309 31.2431 34.2906 31.7077 33.993 32.1612ZM43.7226 26.5183L38.3913 28.8747C36.6472 29.6456 34.8081 30.0997 32.9147 30.2279C33.3188 29.4415 33.7928 28.6889 34.3507 27.9441C35.1974 27.6147 36.0193 27.2167 36.8119 26.7492L41.7829 23.8162C42.5379 23.3707 43.0027 22.6109 43.0833 21.7859C43.9697 22.4512 44.5843 23.445 44.7778 24.5386C44.924 25.3649 44.4901 26.179 43.7226 26.5183V26.5183Z" fill="black"/>
</svg>
