<svg width="61" height="42" viewBox="0 0 61 42" fill="none" xmlns="http://www.w3.org/2000/svg">
<path d="M12.8605 37.5552C12.9647 35.1007 15.0408 33.1108 17.4976 33.1108H52.6296C55.0864 33.1108 56.9935 35.1007 56.8893 37.5552C56.7851 40.0098 54.709 41.9996 52.2522 41.9996H17.1202C14.6634 41.9996 12.7563 40.0098 12.8605 37.5552Z" fill="#F3A945" fill-opacity="0.5"/>
<path d="M53.6028 25.312C53.6689 23.7547 54.9861 22.4922 56.5449 22.4922C58.1036 22.4922 59.3137 23.7547 59.2475 25.312L59.2174 26.0215C59.1513 27.5789 57.8341 28.8413 56.2753 28.8413C54.7166 28.8413 53.5066 27.5789 53.5727 26.0215L53.6028 25.312Z" fill="#F3A945" fill-opacity="0.5"/>
<path d="M29.1114 2.81982C29.1775 1.26247 30.4947 0 32.0534 0C33.6122 0 34.8222 1.26248 34.7561 2.81982L34.726 3.52932C34.6598 5.08666 33.3426 6.34914 31.7839 6.34914C30.2251 6.34914 29.0151 5.08666 29.0812 3.52932L29.1114 2.81982Z" fill="#F3A945" fill-opacity="0.5"/>
<path d="M1.11149 15.8198C1.1776 14.2625 2.49481 13 4.05356 13C5.6123 13 6.82232 14.2625 6.7562 15.8198L6.72608 16.5293C6.65997 18.0867 5.34276 19.3491 3.78401 19.3491C2.22527 19.3491 1.01525 18.0867 1.08137 16.5293L1.11149 15.8198Z" fill="#F3A945" fill-opacity="0.5"/>
<rect width="44.0288" height="8.8968" rx="4.4484" transform="matrix(1 0 -0.0424159 0.9991 7.45508 22)" fill="#F3A945" fill-opacity="0.5"/>
<rect width="44.0288" height="8.8968" rx="4.4484" transform="matrix(1 0 -0.0424159 0.9991 11.9235 9.4895)" fill="#F3A945" fill-opacity="0.5"/>
<path d="M32 40C39.732 40 46 33.732 46 26C46 18.268 39.732 12 32 12C24.268 12 18 18.268 18 26C18 33.732 24.268 40 32 40Z" fill="#88CD0C"/>
<path d="M28.6208 37.5861C28.5691 37.5861 28.5165 37.5774 28.4649 37.56C27.48 37.2245 26.4976 36.7335 25.4606 36.0596C25.2371 35.9143 25.1739 35.6155 25.3192 35.3919C25.4646 35.1684 25.7633 35.1052 25.9873 35.2505C26.9562 35.8805 27.8682 36.3367 28.7762 36.6466C29.0287 36.7325 29.1634 37.0072 29.0775 37.2597C29.0094 37.4596 28.8216 37.5861 28.6208 37.5861Z" fill="#EFEDEE"/>
<path d="M23.3108 34.2069C23.1694 34.2069 23.0294 34.1452 22.9338 34.0259C22.8257 33.8912 22.7064 33.7493 22.5833 33.603C22.1734 33.1149 21.709 32.5622 21.431 32.0099C21.3108 31.7719 21.4069 31.4818 21.6449 31.3616C21.8829 31.2409 22.173 31.3375 22.2932 31.5755C22.5206 32.0274 22.9469 32.5343 23.3224 32.9818C23.4503 33.1339 23.5739 33.2816 23.6869 33.4221C23.8539 33.6302 23.8206 33.9338 23.6126 34.1009C23.5232 34.1722 23.4166 34.2069 23.3108 34.2069Z" fill="#EFEDEE"/>
<path d="M21.9109 16.3448C21.9032 16.3448 21.8872 16.3448 21.8675 16.3448C21.5735 16.6533 21.2935 16.9748 21.028 17.3094C21.5455 17.3099 21.8979 17.3104 21.9109 17.3104C28.2998 17.3104 33.4971 23.4825 33.4971 31.069C33.4971 34.4473 32.6769 37.4376 31.1229 39.72L30.9646 39.9575C31.3069 39.9831 31.6515 40 32.0001 40C32.0286 40 32.0571 39.9981 32.0855 39.9981C33.6366 37.594 34.4626 34.5188 34.4626 31.069C34.4626 22.95 28.8322 16.3448 21.9109 16.3448Z" fill="black"/>
<path d="M28.9906 12.3279C28.4841 12.4389 27.9888 12.578 27.5046 12.7416L27.9579 12.9304C34.4182 15.5305 38.7587 23.596 38.7587 33.0001C38.7587 34.5184 38.5217 36.0072 38.2919 37.4468L38.0278 38.6382C38.413 38.4543 38.7877 38.252 39.1521 38.0348L39.2347 37.6621L39.2448 37.5989C39.4809 36.1216 39.7242 34.5947 39.7242 33.0001C39.7242 23.5289 35.4373 15.3384 28.9906 12.3279Z" fill="black"/>
<path d="M45.2642 30.4018C43.1044 29.0255 41.6551 24.9355 41.6551 20.2069C41.6551 18.8402 41.7913 17.5155 42.0491 16.2575C41.7763 15.976 41.492 15.7071 41.1965 15.4493L41.1593 15.7689C40.8474 17.1766 40.6896 18.6693 40.6896 20.2069C40.6896 25.3541 42.2948 29.6835 44.7786 31.237C44.7964 31.2481 44.8153 31.2582 44.8346 31.2669L44.9509 31.3195C45.073 31.0222 45.1846 30.719 45.2864 30.4115L45.2642 30.4018Z" fill="black"/>
<path d="M45.5867 22.6207C45.5061 22.2949 45.4129 21.9738 45.3096 21.6571C34.2935 21.5973 25.3475 24.5378 18.7125 30.4096C18.8216 30.7378 18.9399 31.0618 19.0722 31.3789L19.2865 31.1887C25.7864 25.4033 34.6107 22.5227 45.5172 22.6207H45.5867Z" fill="black"/>
</svg>
