<svg width="61" height="42" viewBox="0 0 61 42" fill="none" xmlns="http://www.w3.org/2000/svg">
<path d="M12.899 37.5552C13.0032 35.1007 15.0793 33.1108 17.536 33.1108H52.668C55.1248 33.1108 57.032 35.1007 56.9277 37.5552C56.8235 40.0098 54.7475 41.9996 52.2907 41.9996H17.1587C14.7019 41.9996 12.7948 40.0098 12.899 37.5552Z" fill="#F3A945" fill-opacity="0.5"/>
<path d="M53.6413 25.312C53.7074 23.7547 55.0246 22.4922 56.5833 22.4922C58.1421 22.4922 59.3521 23.7547 59.286 25.312L59.2559 26.0215C59.1898 27.5789 57.8725 28.8413 56.3138 28.8413C54.7551 28.8413 53.545 27.5789 53.6112 26.0215L53.6413 25.312Z" fill="#F3A945" fill-opacity="0.5"/>
<path d="M29.1498 2.81982C29.2159 1.26247 30.5331 0 32.0919 0C33.6506 0 34.8606 1.26248 34.7945 2.81982L34.7644 3.52932C34.6983 5.08666 33.3811 6.34914 31.8223 6.34914C30.2636 6.34914 29.0536 5.08666 29.1197 3.52932L29.1498 2.81982Z" fill="#F3A945" fill-opacity="0.5"/>
<path d="M1.14994 15.8198C1.21606 14.2625 2.53327 13 4.09201 13C5.65076 13 6.86077 14.2625 6.79466 15.8198L6.76453 16.5293C6.69842 18.0867 5.38121 19.3491 3.82246 19.3491C2.26372 19.3491 1.0537 18.0867 1.11982 16.5293L1.14994 15.8198Z" fill="#F3A945" fill-opacity="0.5"/>
<rect width="44.0288" height="8.8968" rx="4.4484" transform="matrix(1 0 -0.0424159 0.9991 7.49353 22)" fill="#F3A945" fill-opacity="0.5"/>
<rect width="44.0288" height="8.8968" rx="4.4484" transform="matrix(1 0 -0.0424159 0.9991 11.9619 9.4895)" fill="#F3A945" fill-opacity="0.5"/>
<path d="M46.2583 26C46.2583 33.3224 40.3224 39.2583 33 39.2583C25.6779 39.2583 19.7421 33.3224 19.7421 26C19.7421 18.6779 25.6779 12.7421 33 12.7421C40.3224 12.7421 46.2583 18.6779 46.2583 26Z" fill="#E1EBEF"/>
<path d="M33.3295 12.7463C38.0261 14.7862 41.3109 19.4649 41.3109 24.9116C41.3109 32.2341 35.3751 38.1699 28.053 38.1699C27.9428 38.1699 27.833 38.1684 27.7235 38.1657C29.3409 38.868 31.1247 39.2584 33 39.2584C40.3224 39.2584 46.2583 33.3225 46.2583 26C46.2583 18.7878 40.4996 12.9209 33.3295 12.7463V12.7463Z" fill="#C4D3D6"/>
<path d="M19.7421 26C19.7421 29.4325 21.0463 32.5604 23.1869 34.9149H42.8135C44.9536 32.5604 46.2583 29.4325 46.2583 26C46.2583 22.5674 44.9536 19.4395 42.8135 17.0851H23.1869C21.0463 19.4395 19.7421 22.5674 19.7421 26V26Z" fill="#88CD0C"/>
<path d="M38.7533 17.0851C40.3607 19.2784 41.311 21.9838 41.311 24.9115C41.311 28.9044 39.5463 32.4843 36.754 34.9149H42.8135C44.9536 32.5604 46.2583 29.4325 46.2583 26C46.2583 22.5674 44.9536 19.4399 42.8135 17.0851H38.7533Z" fill="#72AB0B"/>
<path d="M38.8375 26C38.8375 29.224 36.224 31.8375 33 31.8375C29.776 31.8375 27.1625 29.224 27.1625 26C27.1625 22.776 29.776 20.1625 33 20.1625C36.224 20.1625 38.8375 22.776 38.8375 26Z" fill="#E1EBEF"/>
<path d="M43.4289 35.3294C45.6483 32.8513 47 29.5807 47 26C47 22.4193 45.6483 19.1491 43.4289 16.6706C43.3887 16.6109 43.3401 16.5577 43.2846 16.5122C40.725 13.7394 37.0621 12 33 12C28.9379 12 25.275 13.7394 22.7154 16.5122C22.6599 16.5577 22.6113 16.6109 22.5711 16.6706C20.3517 19.1491 19 22.4193 19 26C19 29.5807 20.3517 32.8513 22.5711 35.3294C22.6113 35.3891 22.6599 35.4427 22.7154 35.4882C25.2753 38.2606 28.9383 40 33 40C37.0621 40 40.725 38.2606 43.2846 35.4882C43.3401 35.4427 43.3887 35.3891 43.4289 35.3294ZM23.5286 17.8272H29.5372C29.9471 17.8272 30.2793 17.495 30.2793 17.0851C30.2793 16.6752 29.9471 16.343 29.5372 16.343H25.0465C27.2103 14.5577 29.9823 13.4842 33 13.4842C36.0181 13.4842 38.7897 14.5577 40.9535 16.343H33C32.5905 16.343 32.2579 16.6752 32.2579 17.0851C32.2579 17.495 32.5905 17.8272 33 17.8272H42.4717C44.3677 20.0217 45.5162 22.879 45.5162 26C45.5162 29.121 44.3677 31.9783 42.4717 34.1728H23.5286C21.6323 31.9783 20.4842 29.121 20.4842 26C20.4842 22.879 21.6323 20.0217 23.5286 17.8272V17.8272ZM25.0465 35.657H40.9535C38.7897 37.4423 36.0181 38.5158 33 38.5158C29.9823 38.5158 27.2103 37.4423 25.0465 35.657Z" fill="black"/>
<path d="M33 32.5796C36.6281 32.5796 39.5796 29.6281 39.5796 26C39.5796 22.3719 36.6281 19.4204 33 19.4204C29.3723 19.4204 26.4204 22.3719 26.4204 26C26.4204 29.6281 29.3719 32.5796 33 32.5796ZM33 20.9046C35.8099 20.9046 38.0954 23.1905 38.0954 26C38.0954 28.8099 35.8099 31.0954 33 31.0954C30.1905 31.0954 27.9046 28.8099 27.9046 26C27.9046 23.1905 30.1905 20.9046 33 20.9046Z" fill="black"/>
<path d="M33.4949 27.7812H31.5159C31.1064 27.7812 30.7742 28.1134 30.7742 28.5232C30.7742 28.9328 31.1064 29.2653 31.5159 29.2653H33.4949C34.4498 29.2653 35.2263 28.4884 35.2263 27.5336V26.0494C35.2263 26.0329 35.2251 26.0165 35.224 26C35.2251 25.9836 35.2263 25.9675 35.2263 25.9507V24.4665C35.2263 23.5116 34.4498 22.7351 33.4949 22.7351H32.5056C31.5507 22.7351 30.7738 23.5116 30.7738 24.4665V24.961C30.7738 25.9158 31.5507 26.6927 32.5056 26.6927H33.7421V27.5336C33.7421 27.6702 33.6311 27.7812 33.4949 27.7812ZM32.258 24.961V24.4665C32.258 24.3299 32.3689 24.2193 32.5056 24.2193H33.4949C33.6315 24.2193 33.7425 24.3299 33.7425 24.4665V25.2086H32.5056C32.3689 25.2086 32.258 25.0976 32.258 24.961Z" fill="black"/>
</svg>
