<svg width="61" height="42" viewBox="0 0 61 42" fill="none" xmlns="http://www.w3.org/2000/svg">
<path d="M12.8605 37.5552C12.9647 35.1007 15.0408 33.1108 17.4976 33.1108H52.6296C55.0864 33.1108 56.9935 35.1007 56.8893 37.5552C56.7851 40.0098 54.709 41.9996 52.2522 41.9996H17.1202C14.6634 41.9996 12.7563 40.0098 12.8605 37.5552Z" fill="#F3A945" fill-opacity="0.5"/>
<path d="M53.6028 25.312C53.6689 23.7547 54.9861 22.4922 56.5449 22.4922C58.1036 22.4922 59.3137 23.7547 59.2475 25.312L59.2174 26.0215C59.1513 27.5789 57.8341 28.8413 56.2753 28.8413C54.7166 28.8413 53.5066 27.5789 53.5727 26.0215L53.6028 25.312Z" fill="#F3A945" fill-opacity="0.5"/>
<path d="M29.1114 2.81982C29.1775 1.26247 30.4947 0 32.0534 0C33.6122 0 34.8222 1.26248 34.7561 2.81982L34.726 3.52932C34.6598 5.08666 33.3426 6.34914 31.7839 6.34914C30.2251 6.34914 29.0151 5.08666 29.0812 3.52932L29.1114 2.81982Z" fill="#F3A945" fill-opacity="0.5"/>
<path d="M1.11149 15.8198C1.1776 14.2625 2.49481 13 4.05356 13C5.6123 13 6.82232 14.2625 6.7562 15.8198L6.72608 16.5293C6.65997 18.0867 5.34276 19.3491 3.78401 19.3491C2.22527 19.3491 1.01525 18.0867 1.08137 16.5293L1.11149 15.8198Z" fill="#F3A945" fill-opacity="0.5"/>
<rect width="44.0288" height="8.8968" rx="4.4484" transform="matrix(1 0 -0.0424159 0.9991 7.45508 22)" fill="#F3A945" fill-opacity="0.5"/>
<rect width="44.0288" height="8.8968" rx="4.4484" transform="matrix(1 0 -0.0424159 0.9991 11.9235 9.4895)" fill="#F3A945" fill-opacity="0.5"/>
<path d="M41.178 15.9782C39.737 14.6578 38.0105 13.6443 36.1016 13.0406H27.8984C25.9895 13.6443 24.2629 14.6578 22.8219 15.9782L18.7281 23.069C18.5205 24.0131 18.4102 24.9935 18.4102 25.9999C18.4102 27.0064 18.5205 27.9868 18.7281 28.9309L22.8219 36.0216C24.2629 37.3421 25.9895 38.3556 27.8984 38.9592H36.1016C38.0105 38.3556 39.7371 37.3421 41.1781 36.0216L45.2719 28.9309C45.4795 27.9868 45.5898 27.0064 45.5898 25.9999C45.5898 24.9935 45.4795 24.0131 45.2719 23.069L41.178 15.9782Z" fill="#EFEDEE"/>
<path d="M22.8209 15.98L18.7271 23.0708C18.5198 24.0142 18.4102 24.9943 18.4102 26C18.4102 27.0064 18.5205 27.9868 18.7281 28.9309L22.8219 36.0217C24.2629 37.3421 25.9895 38.3556 27.8984 38.9593H36.1016V38.9596C38.0109 38.3557 39.7376 37.3415 41.1787 36.0205L42.4317 33.8503C40.5793 34.7968 38.4814 35.3315 36.2584 35.3315C28.7529 35.3315 22.6685 29.2471 22.6685 21.7416C22.6685 19.0792 23.4348 16.5961 24.7578 14.4995C24.0677 14.935 23.4198 15.4312 22.8209 15.98V15.98Z" fill="#D4D4D5"/>
<path d="M28.4453 23.3162L31.4531 21.5797C31.7915 21.3843 32.2085 21.3843 32.5469 21.5797L35.5547 23.3162C35.8931 23.5116 36.1016 23.8726 36.1016 24.2634V27.7366C36.1016 28.1273 35.8931 28.4884 35.5547 28.6838L32.5469 30.4203C32.2085 30.6157 31.7915 30.6157 31.4531 30.4203L28.4453 28.6838C28.1069 28.4884 27.8984 28.1273 27.8984 27.7366V24.2634C27.8984 23.8726 28.1069 23.5116 28.4453 23.3162V23.3162Z" fill="#88CD0C"/>
<path d="M32 12.4102C30.5704 12.4102 29.1927 12.6315 27.8984 13.0407V14.1467C27.8984 14.5374 28.1069 14.8985 28.4453 15.0939L31.4531 16.8304C31.7915 17.0258 32.2085 17.0258 32.5469 16.8304L35.5547 15.0939C35.8931 14.8985 36.1016 14.5374 36.1016 14.1467V13.0407C34.8073 12.6315 33.4296 12.4102 32 12.4102V12.4102Z" fill="#88CD0C"/>
<path d="M35.5547 36.906L32.5469 35.1695C32.2085 34.9741 31.7915 34.9741 31.4531 35.1695L28.4453 36.906C28.1069 37.1014 27.8984 37.4625 27.8984 37.8532V38.9592C29.1927 39.3685 30.5704 39.5898 32 39.5898C33.4296 39.5898 34.8073 39.3685 36.1016 38.9592V37.8532C36.1016 37.4625 35.8931 37.1014 35.5547 36.906Z" fill="#72AB0B"/>
<path d="M18.7273 23.073L19.6841 23.6254C20.0225 23.8208 20.4394 23.8208 20.7778 23.6254L23.7856 21.8889C24.124 21.6935 24.3325 21.3324 24.3325 20.9417V17.4685C24.3325 17.0778 24.124 16.7167 23.7856 16.5213L22.8309 15.9701C20.8017 17.8261 19.3383 20.2898 18.7273 23.073V23.073Z" fill="#88CD0C"/>
<path d="M44.316 28.3746C43.9776 28.1792 43.5607 28.1792 43.2223 28.3746L40.2145 30.1111C39.8761 30.3065 39.6676 30.6676 39.6676 31.0583V34.5315C39.6676 34.9222 39.8761 35.2833 40.2145 35.4786L41.1692 36.0299C43.1983 34.1739 44.6618 31.7102 45.2728 28.9269L44.316 28.3746Z" fill="#88CD0C"/>
<path d="M23.7856 30.1111L20.7778 28.3746C20.4394 28.1792 20.0225 28.1792 19.6841 28.3746L18.7273 28.927C19.3383 31.7102 20.8017 34.1739 22.8309 36.0299L23.7856 35.4787C24.124 35.2833 24.3325 34.9222 24.3325 34.5315V31.0584C24.3325 30.6676 24.124 30.3065 23.7856 30.1111V30.1111Z" fill="#72AB0B"/>
<path d="M41.1692 15.9701L40.2145 16.5213C39.8761 16.7167 39.6676 17.0778 39.6676 17.4685V20.9417C39.6676 21.3324 39.8761 21.6935 40.2145 21.8889L43.2223 23.6254C43.5607 23.8208 43.9776 23.8208 44.316 23.6254L45.2728 23.073C44.6618 20.2898 43.1983 17.8261 41.1692 15.9701V15.9701Z" fill="#88CD0C"/>
<path d="M39.7261 34.8843C39.8103 35.1313 39.9816 35.3442 40.2145 35.4787L41.1692 36.03C42.0647 35.2108 42.8498 34.2733 43.5003 33.2423C42.3476 33.9697 41.0781 34.5285 39.7261 34.8843V34.8843Z" fill="#72AB0B"/>
<path d="M22.6686 21.7416C22.6686 19.878 23.0441 18.1021 23.7229 16.4851L22.8308 15.9701C20.8017 17.8261 19.3383 20.2898 18.7273 23.073L19.6841 23.6254C20.0225 23.8208 20.4394 23.8208 20.7778 23.6254L22.6913 22.5206C22.6767 22.2628 22.6686 22.0032 22.6686 21.7416V21.7416Z" fill="#72AB0B"/>
<path d="M44.5272 19.7429C44.4258 19.5403 44.1793 19.4583 43.9769 19.5596C43.7743 19.661 43.6923 19.9074 43.7936 20.1099C44.238 20.9978 44.5754 21.9197 44.8067 22.8685L44.1109 23.2702C43.9001 23.3919 43.6382 23.3919 43.4273 23.2702L40.4195 21.5336C40.2087 21.4119 40.0777 21.185 40.0777 20.9416V17.4685C40.0777 17.2251 40.2087 16.9982 40.4195 16.8765L41.1128 16.4763C41.8141 17.1482 42.4473 17.9029 42.9969 18.7329C43.122 18.9217 43.3765 18.9734 43.5653 18.8484C43.7542 18.7233 43.8059 18.4688 43.6808 18.2799C41.0769 14.3476 36.7102 12 32 12C28.2605 12 24.7448 13.4563 22.1005 16.1005C19.4563 18.7448 18 22.2605 18 26C18 29.7395 19.4563 33.2552 22.1005 35.8995C24.7448 38.5437 28.2605 40 32 40C35.7395 40 39.2553 38.5437 41.8995 35.8995C44.5437 33.2552 46 29.7395 46 26C46 23.801 45.5045 21.6957 44.5272 19.7429V19.7429ZM44.984 23.7134C45.1142 24.4612 45.1797 25.2244 45.1797 26C45.1797 26.7791 45.1113 27.5425 44.981 28.2849L44.5211 28.0194C44.4124 27.9567 44.2974 27.9092 44.1793 27.8758V24.1242C44.2974 24.0908 44.4124 24.0434 44.5211 23.9806L44.984 23.7134ZM43.0172 23.9807C43.1259 24.0434 43.2409 24.0908 43.359 24.1242V27.8758C43.2409 27.9092 43.1258 27.9567 43.0172 28.0194L40.0094 29.7559C39.9007 29.8187 39.8021 29.8945 39.7142 29.9802L36.4651 28.1043C36.4953 27.9853 36.5117 27.8621 36.5117 27.7365V24.2634C36.5117 24.1379 36.4953 24.0146 36.4651 23.8956L39.7142 22.0198C39.8021 22.1054 39.9007 22.1813 40.0094 22.244L43.0172 23.9807ZM18.8203 26C18.8203 25.2209 18.8887 24.4575 19.019 23.7151L19.4789 23.9806C19.5876 24.0433 19.7025 24.0908 19.8207 24.1242V27.8759C19.7025 27.9093 19.5876 27.9567 19.4789 28.0194L19.019 28.2849C18.8887 27.5425 18.8203 26.7791 18.8203 26V26ZM20.641 24.1242C20.7591 24.0908 20.8741 24.0434 20.9828 23.9806L23.9906 22.2441C24.0992 22.1813 24.1978 22.1055 24.2858 22.0198L27.5348 23.8957C27.5046 24.0147 27.4882 24.1379 27.4882 24.2635V25.1797C27.4882 25.4062 27.6719 25.5898 27.8984 25.5898C28.1249 25.5898 28.3085 25.4062 28.3085 25.1797V24.2635C28.3085 24.02 28.4395 23.7932 28.6503 23.6715L31.6581 21.9349C31.869 21.8132 32.1309 21.8132 32.3417 21.9349L35.3496 23.6715C35.5604 23.7932 35.6914 24.02 35.6914 24.2635V27.7366C35.6914 27.9801 35.5604 28.2069 35.3496 28.3286L32.3417 30.0651C32.1309 30.1869 31.8689 30.1869 31.6581 30.0651L28.6503 28.3286C28.4395 28.2069 28.3085 27.98 28.3085 27.7366V26.8203C28.3085 26.5938 28.1249 26.4102 27.8984 26.4102C27.6719 26.4102 27.4882 26.5938 27.4882 26.8203V27.7366C27.4882 27.8621 27.5046 27.9854 27.5348 28.1044L24.2858 29.9802C24.1978 29.8946 24.0992 29.8187 23.9906 29.756L20.9828 28.0194C20.8741 27.9567 20.7591 27.9093 20.641 27.8759V24.1242ZM35.7598 15.4491C35.8684 15.3864 35.967 15.3106 36.055 15.2249L39.304 17.1008C39.2738 17.2198 39.2574 17.3431 39.2574 17.4685V20.9417C39.2574 21.0672 39.2738 21.1905 39.304 21.3095L36.055 23.1853C35.967 23.0996 35.8684 23.0238 35.7598 22.9611L32.752 21.2245C32.6433 21.1618 32.5283 21.1143 32.4102 21.081V17.3292C32.5283 17.2959 32.6433 17.2485 32.752 17.1857L35.7598 15.4491ZM31.5898 21.0809C31.4717 21.1143 31.3567 21.1617 31.248 21.2245L28.2402 22.961C28.1316 23.0237 28.033 23.0996 27.945 23.1852L24.696 21.3094C24.7262 21.1904 24.7426 21.0671 24.7426 20.9416V17.4685C24.7426 17.343 24.7262 17.2197 24.696 17.1008L27.945 15.2249C28.033 15.3106 28.1316 15.3864 28.2402 15.4491L31.248 17.1857C31.3567 17.2484 31.4717 17.2959 31.5898 17.3292V21.0809ZM27.5349 14.5145L24.2858 16.3903C24.1979 16.3047 24.0993 16.2288 23.9906 16.1661L23.5375 15.9045C24.7012 14.9275 26.0351 14.147 27.4883 13.616V14.1467C27.4883 14.2722 27.5047 14.3955 27.5349 14.5145V14.5145ZM23.9906 35.8339C24.0993 35.7712 24.1979 35.6953 24.2858 35.6097L27.5349 37.4855C27.5047 37.6045 27.4883 37.7278 27.4883 37.8533V38.384C26.0351 37.853 24.7012 37.0725 23.5375 36.0955L23.9906 35.8339ZM28.2402 36.5509C28.1316 36.6136 28.033 36.6894 27.945 36.7751L24.6959 34.8992C24.7261 34.7802 24.7425 34.6569 24.7425 34.5315V31.0583C24.7425 30.9328 24.7261 30.8095 24.6959 30.6905L27.945 28.8147C28.0329 28.9004 28.1315 28.9762 28.2402 29.0389L31.248 30.7755C31.3567 30.8383 31.4717 30.8857 31.5898 30.919V34.6707C31.4717 34.7041 31.3567 34.7515 31.248 34.8143L28.2402 36.5509ZM32.4102 30.9191C32.5283 30.8857 32.6433 30.8383 32.752 30.7755L35.7598 29.039C35.8684 28.9763 35.967 28.9004 36.055 28.8148L39.304 30.6906C39.2738 30.8096 39.2574 30.9329 39.2574 31.0584V34.5315C39.2574 34.657 39.2738 34.7803 39.304 34.8993L36.055 36.7751C35.967 36.6895 35.8684 36.6136 35.7598 36.5509L32.752 34.8144C32.6433 34.7516 32.5283 34.7042 32.4102 34.6708V30.9191ZM36.4651 37.4855L39.7142 35.6096C39.8021 35.6953 39.9007 35.7711 40.0094 35.8339L40.4625 36.0954C39.2988 37.0724 37.9649 37.8529 36.5117 38.384V37.8532C36.5117 37.7278 36.4953 37.6045 36.4651 37.4855V37.4855ZM40.0094 16.1661C39.9007 16.2288 39.8021 16.3047 39.7142 16.3903L36.4651 14.5145C36.4953 14.3955 36.5117 14.2722 36.5117 14.1467V13.6137C37.9525 14.1378 39.2922 14.9107 40.4703 15.8999L40.0094 16.1661ZM35.6914 13.3455V14.1468C35.6914 14.3902 35.5604 14.6171 35.3496 14.7388L32.3418 16.4753C32.131 16.597 31.869 16.597 31.6582 16.4753L28.6504 14.7388C28.4396 14.617 28.3086 14.3902 28.3086 14.1468V13.3472C29.4804 13.0048 30.719 12.8203 32 12.8203C33.2673 12.8203 34.5081 13.0012 35.6914 13.3455V13.3455ZM22.8944 16.4804L23.5805 16.8765C23.7913 16.9982 23.9223 17.2251 23.9223 17.4685V20.9417C23.9223 21.1851 23.7913 21.4119 23.5805 21.5337L20.5727 23.2702C20.3618 23.392 20.0999 23.392 19.8891 23.2702L19.1967 22.8705C19.8022 20.3938 21.1088 18.189 22.8944 16.4804V16.4804ZM19.1967 29.1295L19.8891 28.7298C20.0999 28.608 20.3618 28.608 20.5727 28.7298L23.5805 30.4663C23.7913 30.5881 23.9223 30.8149 23.9223 31.0583V34.5315C23.9223 34.7749 23.7913 35.0017 23.5805 35.1235L22.8944 35.5196C21.1088 33.811 19.8022 31.6062 19.1967 29.1295ZM28.3086 38.6528V37.8532C28.3086 37.6098 28.4396 37.3829 28.6504 37.2613L31.6582 35.5247C31.869 35.403 32.131 35.403 32.3418 35.5247L35.3497 37.2613C35.5604 37.383 35.6914 37.6098 35.6914 37.8533V38.6528C34.5196 38.9952 33.281 39.1797 32 39.1797C30.719 39.1797 29.4804 38.9952 28.3086 38.6528ZM41.1056 35.5196L40.4195 35.1235C40.2087 35.0018 40.0777 34.7749 40.0777 34.5315V31.0584C40.0777 30.8149 40.2087 30.5881 40.4195 30.4664L43.4273 28.7298C43.6382 28.6081 43.9002 28.6081 44.1109 28.7298L44.8033 29.1295C44.1978 31.6062 42.8912 33.811 41.1056 35.5196V35.5196Z" fill="black"/>
</svg>
