<svg width="20" height="21" viewBox="0 0 20 21" fill="none" xmlns="http://www.w3.org/2000/svg">
<path d="M3.80697 11.5048C4.80786 12.5422 6.02323 13.061 7.45308 13.061C8.88293 13.061 10.0983 12.5422 11.0992 11.5048C12.1001 10.4673 12.6005 9.20753 12.6005 7.72543C12.6005 6.24333 12.1001 4.98355 11.0992 3.94608C10.0983 2.90862 8.88293 2.38988 7.45308 2.38988C6.02323 2.38988 4.80786 2.90862 3.80697 3.94608C2.80608 4.98355 2.30563 6.24333 2.30563 7.72543C2.30563 9.20753 2.80608 10.4673 3.80697 11.5048ZM14.3164 13.061L20 18.9523L18.2842 20.7308L12.6005 14.8395V13.8947L12.2788 13.5612C10.9205 14.7839 9.31189 15.3953 7.45308 15.3953C5.3798 15.3953 3.61037 14.6542 2.14477 13.1721C0.714924 11.69 0 9.87447 0 7.72543C0 5.57639 0.714924 3.76082 2.14477 2.27872C3.61037 0.759575 5.3798 0 7.45308 0C9.52636 0 11.2779 0.759575 12.7078 2.27872C14.1376 3.76082 14.8525 5.57639 14.8525 7.72543C14.8525 9.65216 14.2627 11.3195 13.0831 12.7275L13.4048 13.061H14.3164Z" fill="#C4C4C4"/>
</svg>
