<svg width="61" height="42" viewBox="0 0 61 42" fill="none" xmlns="http://www.w3.org/2000/svg">
<path d="M12.8605 37.5552C12.9647 35.1007 15.0408 33.1108 17.4976 33.1108H52.6296C55.0864 33.1108 56.9935 35.1007 56.8893 37.5552C56.7851 40.0098 54.709 41.9996 52.2522 41.9996H17.1202C14.6634 41.9996 12.7563 40.0098 12.8605 37.5552Z" fill="#F3A945" fill-opacity="0.5"/>
<path d="M53.6028 25.312C53.6689 23.7547 54.9861 22.4922 56.5449 22.4922C58.1036 22.4922 59.3137 23.7547 59.2475 25.312L59.2174 26.0215C59.1513 27.5789 57.8341 28.8413 56.2753 28.8413C54.7166 28.8413 53.5066 27.5789 53.5727 26.0215L53.6028 25.312Z" fill="#F3A945" fill-opacity="0.5"/>
<path d="M29.1114 2.81982C29.1775 1.26247 30.4947 0 32.0534 0C33.6122 0 34.8222 1.26248 34.7561 2.81982L34.726 3.52932C34.6598 5.08666 33.3426 6.34914 31.7839 6.34914C30.2251 6.34914 29.0151 5.08666 29.0812 3.52932L29.1114 2.81982Z" fill="#F3A945" fill-opacity="0.5"/>
<path d="M1.11149 15.8198C1.1776 14.2625 2.49481 13 4.05356 13C5.6123 13 6.82232 14.2625 6.7562 15.8198L6.72608 16.5293C6.65997 18.0867 5.34276 19.3491 3.78401 19.3491C2.22527 19.3491 1.01525 18.0867 1.08137 16.5293L1.11149 15.8198Z" fill="#F3A945" fill-opacity="0.5"/>
<rect width="44.0288" height="8.8968" rx="4.4484" transform="matrix(1 0 -0.0424159 0.9991 7.45508 22)" fill="#F3A945" fill-opacity="0.5"/>
<rect width="44.0288" height="8.8968" rx="4.4484" transform="matrix(1 0 -0.0424159 0.9991 11.9235 9.4895)" fill="#F3A945" fill-opacity="0.5"/>
<path d="M49.414 14.9252L45.5392 21.4247L45.134 21.9416C44.7005 22.4946 43.9083 22.6484 43.2876 22.2999L38.6468 19.6949C38.0145 19.34 37.7641 18.5794 38.0679 17.9366L38.5817 16.8495L41.1477 12.5664H49.414V14.9252Z" fill="#F9D6BD"/>
<path d="M30.2637 40.4338C35.6091 40.4338 39.9425 36.2459 39.9425 31.0798C39.9425 25.9137 35.6091 21.7257 30.2637 21.7257C24.9183 21.7257 20.585 25.9137 20.585 31.0798C20.585 36.2459 24.9183 40.4338 30.2637 40.4338Z" fill="#88CD0C"/>
<path d="M33.8967 39.7522L30.2732 37.6096V34.3646L33.2985 32.2402L36.829 33.0063L37.5324 37.2554L33.8967 39.7522Z" fill="white"/>
<path d="M39.8812 30.0306L36.8289 33.0063L33.2985 32.2402L32.1429 28.8029L34.3249 25.558L38.6173 26.3543L39.8812 30.0306Z" fill="white"/>
<path d="M26.9763 39.8802L30.2542 37.6096V34.3646L27.2288 32.2402L23.6985 33.0063L23.165 37.4375L26.9763 39.8802Z" fill="white"/>
<path d="M20.6517 29.9826L23.6984 33.0063L27.2288 32.2402L28.3844 28.8029L26.2025 25.558L21.9211 26.3352L20.6517 29.9826Z" fill="white"/>
<path d="M28.3842 21.9027L26.2025 25.5581L28.3845 28.803H32.1432L34.3251 25.5581L32.1432 21.9027H28.3842Z" fill="white"/>
<path d="M44.1094 26.2476L43.1449 27.862C42.6202 28.7404 41.3561 28.9844 40.3214 28.4071L37.543 26.8568C37.3105 26.1931 36.8051 25.6111 36.1381 25.239L34.5176 24.3348C34.1737 24.1429 33.7745 24.0748 33.408 24.1456C33.0433 24.216 32.6461 24.1483 32.3039 23.9574L23.3734 18.9743C22.3232 18.3882 21.9036 17.1904 22.4362 16.2988L23.4007 14.6844L44.1094 26.2476Z" fill="#FFC66C"/>
<path d="M41.6443 21.4254C42.2355 21.7553 42.9315 21.8371 43.5331 21.6473L44.2135 21.4326C44.813 21.2435 45.5068 21.3249 46.096 21.6537C46.4099 21.8288 46.5353 22.1869 46.3761 22.4534L44.1094 26.2478C43.5847 27.1262 42.3205 27.3702 41.2859 26.7929L38.5074 25.2425C38.2749 24.5788 37.7696 23.9969 37.1025 23.6247L35.4821 22.7205C35.1381 22.5286 34.7389 22.4606 34.3724 22.5314C34.0077 22.6018 33.6106 22.5341 33.2684 22.3431L24.3377 17.3599C23.2876 16.7739 22.8679 15.5761 23.4006 14.6846C23.8001 14.0158 24.6297 13.6723 25.5113 13.8107C25.5113 13.8107 36.6938 15.796 37.808 16.4177L38.5818 16.8494L38.0035 17.8175C37.6137 18.47 37.8449 19.3043 38.5199 19.6811L41.6443 21.4254Z" fill="#72AB0B"/>
<path d="M33.0675 15.3462L33.8854 18.2962L35.9966 18.6504L35.182 15.7121L33.0675 15.3462Z" fill="#EDF2FA"/>
<path d="M43.1266 21.7324C43.2652 21.7166 43.4014 21.6889 43.5331 21.6473L43.8907 21.5345L44.6055 21.3494C45.1025 21.2898 45.6316 21.3946 46.096 21.6538C46.4099 21.8289 46.5353 22.1869 46.3761 22.4534L44.1094 26.2478C43.5846 27.1262 42.3205 27.3702 41.2859 26.7929L38.5074 25.2426C38.2749 24.5788 37.7695 23.9969 37.1025 23.6247L36.7196 23.4111L36.7204 23.3914L43.1266 21.7324Z" fill="#88CD0C"/>
<path d="M28.8519 14.6844L29.6483 17.5568L31.7595 17.9109L30.9566 15.0147L28.8519 14.6844Z" fill="#EDF2FA"/>
<path d="M38.4073 29.5331L38.5294 29.6012C38.9607 29.8419 39.5122 29.6991 39.7612 29.2822L40.2825 28.4095L38.5986 27.4698L38.0773 28.3426C37.8283 28.7594 37.976 29.2924 38.4073 29.5331Z" fill="#72AB0B"/>
<path d="M28.5666 24.042L28.6887 24.1101C29.12 24.3508 29.6715 24.208 29.9205 23.7911L30.4418 22.9184L28.7579 21.9788L28.2366 22.8515C27.9875 23.2683 28.1353 23.8013 28.5666 24.042Z" fill="#72AB0B"/>
<path d="M23.5538 21.2448L23.6759 21.313C24.1072 21.5536 24.6587 21.4109 24.9077 20.994L25.429 20.1213L23.7451 19.1816L23.2238 20.0544C22.9747 20.4712 23.1225 21.0042 23.5538 21.2448Z" fill="#72AB0B"/>
<path d="M38.578 22.344C38.4239 22.344 38.2727 22.4045 38.1637 22.5099C38.0547 22.6152 37.9921 22.7608 37.9921 22.9103C37.9921 23.0592 38.0548 23.2053 38.1637 23.3106C38.2727 23.416 38.4239 23.4766 38.578 23.4766C38.7327 23.4766 38.8833 23.416 38.9923 23.3106C39.1019 23.2053 39.164 23.0593 39.164 22.9103C39.164 22.7608 39.1018 22.6152 38.9923 22.5099C38.8833 22.4046 38.7327 22.344 38.578 22.344Z" fill="black"/>
<path d="M48.7016 16.1214C48.4211 15.9653 48.0629 16.0585 47.9014 16.3294L45.2435 20.7877C45.0017 20.7582 44.7588 20.7586 44.5204 20.7886C44.5194 20.7888 44.5185 20.7888 44.5175 20.7889C44.3529 20.8099 44.1903 20.8443 44.0322 20.8943L43.7246 20.9914L43.0193 21.174C42.6604 21.2056 42.275 21.123 41.9379 20.935L38.8136 19.1907C38.4194 18.9706 38.284 18.4816 38.5115 18.1007L39.0893 17.1334C39.0894 17.1334 39.0894 17.1333 39.0894 17.1332L41.6554 12.8501C41.8175 12.5795 41.722 12.233 41.4419 12.0763C41.1619 11.9197 40.8034 12.0119 40.6412 12.2826L38.3685 16.0762L38.1015 15.9273C36.9576 15.2889 27.5017 13.5881 25.6177 13.2537C25.6137 13.2529 25.6097 13.2523 25.6058 13.2516C24.4811 13.0754 23.4163 13.5265 22.8937 14.4014L21.9295 16.0157C21.2599 17.1364 21.7189 18.6176 22.9475 19.3854L22.7171 19.7713C22.5184 20.1039 22.4656 20.4913 22.5684 20.8623C22.6713 21.2333 22.9175 21.5433 23.2617 21.7353L23.3837 21.8034C23.613 21.9314 23.8674 21.9967 24.1252 21.9967C24.2545 21.9967 24.3845 21.9803 24.5127 21.947C24.8965 21.8476 25.2174 21.6097 25.416 21.2771L25.6444 20.8948L27.0246 21.665C25.1591 22.2666 23.486 23.389 22.247 24.885C21.9509 25.2425 21.6825 25.6191 21.442 26.0108C21.4264 26.0324 21.4127 26.0551 21.4004 26.0786C20.6969 27.2455 20.2446 28.5457 20.0754 29.8891C20.0723 29.9071 20.0701 29.9253 20.0688 29.9435C20.0235 30.3196 20 30.699 20 31.0798C20 33.6552 21.021 36.0044 22.6921 37.7697C22.7207 37.8077 22.7538 37.8424 22.7913 37.8726C23.8783 38.989 25.229 39.8629 26.7466 40.3997C26.7706 40.4096 26.795 40.418 26.82 40.4247C27.8972 40.7967 29.0568 41 30.2647 41C31.611 41 32.8975 40.7477 34.0767 40.2902C34.1072 40.2808 34.1369 40.2693 34.1655 40.2551C35.6125 39.6783 36.8941 38.791 37.9211 37.6793C37.9566 37.6488 37.9882 37.6145 38.0151 37.577C39.5805 35.8352 40.5292 33.5625 40.5292 31.0797C40.5292 30.7136 40.5071 30.3458 40.4658 29.9831C40.4651 29.9751 40.4641 29.9672 40.4631 29.9592C40.4575 29.9115 40.4529 29.8636 40.4466 29.8161C40.4459 29.8105 40.4451 29.8051 40.4442 29.7996L40.3769 29.3854L40.5343 29.1217C40.8535 29.2309 41.181 29.2848 41.5014 29.2848C42.385 29.2848 43.213 28.8819 43.6531 28.1451L44.6175 26.5308L46.8842 22.7364C47.2047 22.1998 46.9829 21.4941 46.3896 21.1632C46.3852 21.1607 46.3807 21.1586 46.3763 21.1561L48.9167 16.8948C49.0784 16.6238 48.982 16.2776 48.7016 16.1214ZM35.1943 17.9407L34.3555 17.8L33.8528 15.9867C34.1478 16.0488 34.4321 16.1095 34.703 16.1686L35.1943 17.9407ZM30.9568 17.2015L30.118 17.0608L29.5848 15.1376C29.8664 15.1913 30.1485 15.2454 30.4296 15.2997L30.9568 17.2015ZM24.4009 20.7109C24.3587 20.7815 24.2906 20.832 24.2092 20.853C24.1277 20.8742 24.0427 20.8634 23.9696 20.8226L23.8475 20.7544C23.8475 20.7544 23.8475 20.7544 23.8475 20.7544C23.7745 20.7136 23.7222 20.6478 23.7004 20.5692C23.6785 20.4904 23.6897 20.4082 23.7319 20.3376L23.9602 19.9553L24.6293 20.3286L24.4009 20.7109ZM32.0116 24.4478C32.4795 24.7089 33.0165 24.7988 33.5234 24.701C33.7496 24.6573 34.0055 24.7026 34.2254 24.8253L35.8458 25.7295C36.3864 26.0311 36.803 26.5082 36.9887 27.0385C37.0344 27.1688 37.1275 27.2785 37.2508 27.3473L37.8098 27.6592L37.5707 28.0594C37.1605 28.746 37.4049 29.6271 38.1152 30.0235L38.1153 30.0235L38.2373 30.0916C38.4182 30.1925 38.6123 30.252 38.8077 30.2739L36.6421 32.3852L33.7537 31.7584L33.4462 30.8439L32.7883 28.8869L33.789 27.4172C33.9669 27.156 33.892 26.8048 33.6217 26.6328C33.3515 26.461 32.9881 26.5333 32.8101 26.7945L31.8282 28.2367H28.7034L26.8904 25.5403L27.7689 24.0683C27.8953 24.2575 28.067 24.4165 28.2745 24.5324L28.3966 24.6005C28.6303 24.7309 28.8857 24.7927 29.138 24.7927C29.6525 24.7927 30.1536 24.5349 30.4289 24.0742L30.6573 23.6919L32.0116 24.4478ZM37.8948 35.854L37.4556 33.2007L39.3525 31.3514C39.3002 33.0074 38.7716 34.5495 37.8948 35.854ZM21.1751 31.313L23.085 33.2083L22.7468 36.0174C21.7958 34.6692 21.2222 33.0534 21.1751 31.313ZM22.2865 26.8451L25.9257 26.1845L27.7415 28.885L26.7754 31.7584L24.4034 32.2731L23.8904 32.3844L21.2695 29.7834C21.4285 28.7357 21.7777 27.7439 22.2865 26.8451ZM31.7182 29.3692L32.6107 32.0239L31.4424 32.8442L30.2741 33.6646L27.9376 32.0239L28.8301 29.3692H31.7182ZM38.5855 28.6256L38.8138 28.2433L39.4829 28.6166L39.2545 28.999C39.1675 29.1447 38.9739 29.1949 38.823 29.1106L38.701 29.0426C38.5504 28.9584 38.4985 28.7714 38.5855 28.6256ZM29.4138 23.508C29.3267 23.6536 29.1332 23.7038 28.9824 23.6198L28.8604 23.5516C28.8604 23.5516 28.8603 23.5516 28.8603 23.5516C28.7872 23.5108 28.735 23.445 28.7131 23.3663C28.6912 23.2876 28.7024 23.2053 28.7446 23.1347L28.973 22.7524L29.381 22.9801L29.642 23.1257L29.4138 23.508ZM27.1639 22.815L25.8303 25.0494L23.2038 25.5262C24.2236 24.3141 25.5801 23.3657 27.1639 22.815ZM23.7803 37.2335L24.2331 33.4708L26.9661 32.8777L27.0995 32.8488L29.669 34.6531V37.3186L26.8936 39.2411C25.7144 38.7845 24.6564 38.0956 23.7803 37.2335ZM28.3002 39.6603L30.2894 38.2824L32.5107 39.5959C31.792 39.773 31.0396 39.8674 30.2647 39.8674C29.5903 39.8675 28.933 39.7955 28.3002 39.6603ZM33.9433 39.1153L30.8601 37.2921V34.6531L32.7518 33.3248L33.4297 32.8488L33.6144 32.8889L36.3142 33.4748L36.9095 37.0714C36.0783 37.9318 35.0709 38.6312 33.9433 39.1153ZM40.6152 27.9168L38.0179 26.4675C37.7134 25.7581 37.1571 25.1533 36.4317 24.7486L34.8114 23.8444C34.3417 23.5823 33.8028 23.492 33.2939 23.5903C33.0695 23.6338 32.8158 23.5887 32.5976 23.4669L30.7357 22.4281C30.7357 22.4281 30.7357 22.428 30.7356 22.428L30.157 22.1051L25.7233 19.6312C25.7231 19.6311 25.723 19.631 25.7228 19.6309L24.039 18.6913C24.0388 18.6912 24.0387 18.6912 24.0385 18.6911L23.6672 18.4839C22.9421 18.0793 22.6129 17.2975 22.8884 16.6899C23.136 17.1517 23.5291 17.5622 24.0456 17.8503L32.9762 22.8334C33.4442 23.0945 33.9812 23.1844 34.488 23.0866C34.7141 23.0427 34.97 23.0881 35.19 23.2109L36.8104 24.115C37.351 24.4167 37.7676 24.8938 37.9534 25.4241C37.999 25.5544 38.0921 25.6641 38.2154 25.7329L40.9938 27.2832C41.4536 27.5398 41.9625 27.6725 42.4678 27.6725C42.5042 27.6725 42.5406 27.6713 42.577 27.67C42.1811 28.1995 41.3289 28.3151 40.6152 27.9168ZM43.6026 25.9646C43.4344 26.2463 43.1404 26.4402 42.7748 26.5108C42.3812 26.5869 41.9567 26.5129 41.5797 26.3024L38.9823 24.8531C38.6778 24.1438 38.1216 23.5389 37.3962 23.1341L35.7757 22.23C35.306 21.9679 34.7671 21.8777 34.2583 21.9759C34.034 22.0194 33.7802 21.9743 33.562 21.8525L24.6314 16.8695C23.8627 16.4405 23.5385 15.5874 23.9088 14.9677C24.185 14.5053 24.7749 14.2706 25.4126 14.3687C26.2865 14.5238 27.2763 14.7041 28.3045 14.8961L29.0828 17.7034C29.1419 17.9165 29.3237 18.0771 29.5486 18.1148L31.6598 18.469C31.6933 18.4746 31.7268 18.4773 31.7601 18.4773C31.9231 18.4773 32.0806 18.4115 32.1926 18.293C32.3275 18.1503 32.3778 17.9511 32.326 17.7645L31.7123 15.5509C32.0011 15.6082 32.2863 15.6653 32.566 15.7218L33.3203 18.4428C33.3794 18.6559 33.5611 18.8165 33.786 18.8542L35.8973 19.2084C35.9307 19.214 35.9642 19.2167 35.9975 19.2167C36.1605 19.2167 36.318 19.1509 36.43 19.0324C36.565 18.8897 36.6152 18.6905 36.5635 18.5039L35.9977 16.463C36.7861 16.6519 37.3353 16.8076 37.5156 16.9082L37.782 17.0568L37.4966 17.5345C36.946 18.4561 37.2738 19.6391 38.2274 20.1715L40.9725 21.7041L40.1335 21.9213C39.8209 22.0023 39.6354 22.3128 39.7191 22.6149C39.7893 22.8679 40.026 23.0348 40.2847 23.0348C40.3349 23.0348 40.386 23.0286 40.4368 23.0154L43.2367 22.2903C43.3991 22.2692 43.5595 22.2349 43.7156 22.1856L44.0577 22.0776L44.7152 21.9074C45.0759 21.8729 45.4643 21.9548 45.8037 22.1441C45.8338 22.1609 45.8489 22.1807 45.8557 22.1931L43.6026 25.9646Z" fill="black"/>
<path d="M49.8284 14.5246C49.7194 14.4192 49.5682 14.3586 49.4141 14.3586C49.2599 14.3586 49.1088 14.4192 48.9998 14.5246C48.8908 14.6299 48.8281 14.776 48.8281 14.9249C48.8281 15.0745 48.8908 15.22 48.9998 15.3253C49.1087 15.4307 49.2599 15.4912 49.4141 15.4912C49.5682 15.4912 49.7194 15.4307 49.8284 15.3253C49.9374 15.22 50 15.074 50 14.9249C50 14.776 49.9373 14.6299 49.8284 14.5246Z" fill="black"/>
</svg>
