<svg width="61" height="42" viewBox="0 0 61 42" fill="none" xmlns="http://www.w3.org/2000/svg">
<path d="M12.8605 37.5552C12.9647 35.1007 15.0408 33.1108 17.4976 33.1108H52.6296C55.0864 33.1108 56.9935 35.1007 56.8893 37.5552C56.7851 40.0098 54.709 41.9996 52.2522 41.9996H17.1202C14.6634 41.9996 12.7563 40.0098 12.8605 37.5552Z" fill="#F3A945" fill-opacity="0.5"/>
<path d="M53.6028 25.312C53.6689 23.7547 54.9861 22.4922 56.5449 22.4922C58.1036 22.4922 59.3137 23.7547 59.2475 25.312L59.2174 26.0215C59.1513 27.5789 57.8341 28.8413 56.2753 28.8413C54.7166 28.8413 53.5066 27.5789 53.5727 26.0215L53.6028 25.312Z" fill="#F3A945" fill-opacity="0.5"/>
<path d="M29.1114 2.81982C29.1775 1.26247 30.4947 0 32.0534 0C33.6122 0 34.8222 1.26248 34.7561 2.81982L34.726 3.52932C34.6598 5.08666 33.3426 6.34914 31.7839 6.34914C30.2251 6.34914 29.0151 5.08666 29.0812 3.52932L29.1114 2.81982Z" fill="#F3A945" fill-opacity="0.5"/>
<path d="M1.11149 15.8198C1.1776 14.2625 2.49481 13 4.05356 13C5.6123 13 6.82232 14.2625 6.7562 15.8198L6.72608 16.5293C6.65997 18.0867 5.34276 19.3491 3.78401 19.3491C2.22527 19.3491 1.01525 18.0867 1.08137 16.5293L1.11149 15.8198Z" fill="#F3A945" fill-opacity="0.5"/>
<rect width="44.0288" height="8.8968" rx="4.4484" transform="matrix(1 0 -0.0424159 0.9991 7.45508 22)" fill="#F3A945" fill-opacity="0.5"/>
<rect width="44.0288" height="8.8968" rx="4.4484" transform="matrix(1 0 -0.0424159 0.9991 11.9235 9.4895)" fill="#F3A945" fill-opacity="0.5"/>
<path d="M46.4166 34.3861L44.5468 33.5287L41.3459 30.3274C41.2899 30.2719 41.2806 30.1847 41.3228 30.1178C42.4263 28.352 42.9507 26.2946 42.9085 24.191L41.2329 22.0886L30.4174 31.1191L32.1901 34.9088C34.2938 34.9509 36.3513 34.4266 38.1172 33.3231C38.1842 33.281 38.2714 33.2902 38.3268 33.3462L41.5283 36.547L42.3859 38.4167C42.9587 39.6657 44.601 39.9607 45.5729 38.9895L46.9894 37.573C47.9608 36.6012 47.6657 34.959 46.4166 34.3861V34.3861Z" fill="#EFEDEE"/>
<path d="M42.9086 24.1911L32.1902 34.9088C29.0655 34.8476 25.8403 33.5368 23.3237 31.0204C18.5018 26.1982 18.1063 18.7759 22.4408 14.4423C26.7747 10.1081 34.1974 10.5036 39.0199 15.3252C41.5365 17.8416 42.8473 21.0666 42.9086 24.1911V24.1911Z" fill="#88CD0C"/>
<path d="M20.0769 25.8138C20.7052 27.6902 21.7903 29.4868 23.3237 31.0203C24.6544 32.351 26.1835 33.3443 27.7909 33.9942C27.9685 33.8546 28.1389 33.7036 28.3011 33.5414C29.3674 32.4751 29.9546 31.0575 29.9546 29.5497C29.9546 28.0418 29.3674 26.6242 28.3011 25.558C27.2347 24.4917 25.8171 23.9045 24.3091 23.9045C22.8011 23.9045 21.3834 24.4917 20.3171 25.558C20.234 25.6411 20.1541 25.7266 20.0769 25.8138V25.8138Z" fill="#72AB0B"/>
<path d="M24.3092 34.0399C26.7892 34.0399 28.7997 32.0295 28.7997 29.5496C28.7997 27.0697 26.7892 25.0593 24.3092 25.0593C21.8291 25.0593 19.8186 27.0697 19.8186 29.5496C19.8186 32.0295 21.8291 34.0399 24.3092 34.0399Z" fill="#FEF056"/>
<path d="M23.5044 31.2405C21.8473 29.5836 21.7575 26.9541 23.2319 25.1899C22.4634 25.3792 21.7344 25.7742 21.1338 26.3747C19.3802 28.1282 19.3802 30.9713 21.1338 32.7249C22.8875 34.4784 25.7308 34.4784 27.4844 32.7249C27.5811 32.6282 27.6729 32.5273 27.7589 32.4244C26.283 32.7877 24.6575 32.3935 23.5044 31.2405Z" fill="#FEE903"/>
<path d="M19.773 25.5965C19.809 25.6058 19.8456 25.6104 19.8819 25.6104C19.9962 25.6104 20.1076 25.565 20.19 25.4817L20.2151 25.456C20.371 25.3001 20.3831 25.0549 20.2517 24.885C19.2574 21.0889 20.1837 17.3112 22.7468 14.7482C24.755 12.74 27.5172 11.7214 30.5242 11.8825C33.5487 12.0436 36.457 13.375 38.7134 15.6312C38.9161 15.834 39.1178 16.0494 39.3129 16.2716C39.4706 16.4512 39.7444 16.4692 39.924 16.3113C40.1038 16.1535 40.1216 15.8798 39.9638 15.7001C39.7565 15.464 39.5419 15.2347 39.326 15.0188C36.9182 12.6111 33.8086 11.1901 30.5703 11.0176C27.3155 10.8446 24.3187 11.9515 22.1343 14.1357C20.7253 15.5446 19.7412 17.338 19.2884 19.3218C18.8511 21.2379 18.912 23.3027 19.4646 25.2931C19.5059 25.442 19.6234 25.5576 19.773 25.5965V25.5965Z" fill="black"/>
<path d="M47.9622 35.7534C47.8231 34.9787 47.3128 34.3204 46.5973 33.9923L44.7982 33.1674L43.8095 32.1788C43.6404 32.0098 43.3662 32.0097 43.197 32.1789C43.0279 32.348 43.0279 32.6222 43.1971 32.7913L44.2407 33.8348C44.2771 33.8712 44.3197 33.9008 44.3665 33.9223L46.2364 34.7796C46.701 34.9927 47.0194 35.4034 47.1097 35.9065C47.2 36.4096 47.0445 36.9053 46.6831 37.2667L45.2666 38.6831C44.9052 39.0446 44.4093 39.2 43.9063 39.1096C43.4032 39.0193 42.9925 38.701 42.7794 38.2364L41.922 36.3666C41.9006 36.3198 41.8709 36.2773 41.8346 36.2408L38.6334 33.0399C38.4341 32.8405 38.1276 32.8059 37.8878 32.9555C36.5002 33.8226 34.9176 34.3237 33.2618 34.4495L42.4469 25.265C42.3214 26.9097 41.8263 28.4945 40.9554 29.8883C40.8054 30.1279 40.84 30.4345 41.0394 30.6338L41.892 31.4863C41.9765 31.5708 42.0874 31.6131 42.1982 31.6131C42.309 31.6131 42.4199 31.5708 42.5045 31.4862C42.6736 31.3171 42.6736 31.0428 42.5044 30.8738L41.7992 30.1686C44.0793 26.3529 43.8219 21.2937 41.1232 17.216C40.9912 17.0165 40.7224 16.9618 40.523 17.0938C40.3235 17.2258 40.2689 17.4945 40.4008 17.694C41.6996 19.6564 42.3938 21.8585 42.4714 24.0157L32.0128 34.4734C30.8672 34.431 29.7017 34.2142 28.5544 33.8178C28.3285 33.7398 28.0817 33.8596 28.0036 34.0857C27.9255 34.3117 28.0455 34.5584 28.2715 34.6365C31.7032 35.8223 35.297 35.5155 38.168 33.7994L41.1671 36.7983L41.9921 38.5973C42.3202 39.3128 42.9785 39.823 43.7532 39.9621C43.8947 39.9875 44.0368 40 44.178 40C44.8101 39.9999 45.4242 39.7504 45.8791 39.2956L47.2956 37.8792C47.8521 37.3227 48.1013 36.528 47.9622 35.7534Z" fill="black"/>
<path d="M27.7907 26.0685C27.3497 25.6275 26.8361 25.2786 26.2641 25.0314C26.0446 24.9363 25.7896 25.0375 25.6948 25.257C25.5998 25.4766 25.7008 25.7315 25.9204 25.8263C26.3916 26.0301 26.8148 26.3176 27.1781 26.6809C28.7601 28.2628 28.7601 30.8368 27.1782 32.4187C26.387 33.2097 25.3482 33.6052 24.309 33.6051C23.2701 33.605 22.2309 33.2095 21.44 32.4187C19.8579 30.8368 19.8579 28.2628 21.44 26.6809C22.1996 25.9213 23.21 25.4995 24.2851 25.4932C24.5243 25.4918 24.717 25.2968 24.7157 25.0576C24.7143 24.8193 24.5206 24.6271 24.2826 24.6271C24.2817 24.6271 24.2809 24.6271 24.28 24.6271C22.9755 24.6348 21.7494 25.1466 20.8274 26.0685C18.9078 27.9881 18.9078 31.1115 20.8275 33.0312C21.7873 33.991 23.0482 34.4709 24.309 34.4709C25.5698 34.4709 26.8308 33.991 27.7906 33.0311C29.7104 31.1115 29.7104 27.9881 27.7907 26.0685V26.0685Z" fill="black"/>
</svg>
