<svg width="61" height="42" viewBox="0 0 61 42" fill="none" xmlns="http://www.w3.org/2000/svg">
<path d="M12.8605 37.5552C12.9647 35.1007 15.0408 33.1108 17.4976 33.1108H52.6296C55.0864 33.1108 56.9935 35.1007 56.8893 37.5552C56.7851 40.0098 54.709 41.9996 52.2522 41.9996H17.1202C14.6634 41.9996 12.7563 40.0098 12.8605 37.5552Z" fill="#F3A945" fill-opacity="0.5"/>
<path d="M53.6028 25.312C53.6689 23.7547 54.9861 22.4922 56.5449 22.4922C58.1036 22.4922 59.3137 23.7547 59.2475 25.312L59.2174 26.0215C59.1513 27.5789 57.8341 28.8413 56.2753 28.8413C54.7166 28.8413 53.5066 27.5789 53.5727 26.0215L53.6028 25.312Z" fill="#F3A945" fill-opacity="0.5"/>
<path d="M29.1114 2.81982C29.1775 1.26247 30.4947 0 32.0534 0C33.6122 0 34.8222 1.26248 34.7561 2.81982L34.726 3.52932C34.6598 5.08666 33.3426 6.34914 31.7839 6.34914C30.2251 6.34914 29.0151 5.08666 29.0812 3.52932L29.1114 2.81982Z" fill="#F3A945" fill-opacity="0.5"/>
<path d="M1.11149 15.8198C1.1776 14.2625 2.49481 13 4.05356 13C5.6123 13 6.82232 14.2625 6.7562 15.8198L6.72608 16.5293C6.65997 18.0867 5.34276 19.3491 3.78401 19.3491C2.22527 19.3491 1.01525 18.0867 1.08137 16.5293L1.11149 15.8198Z" fill="#F3A945" fill-opacity="0.5"/>
<rect width="44.0288" height="8.8968" rx="4.4484" transform="matrix(1 0 -0.0424159 0.9991 7.45508 22)" fill="#F3A945" fill-opacity="0.5"/>
<rect width="44.0288" height="8.8968" rx="4.4484" transform="matrix(1 0 -0.0424159 0.9991 11.9235 9.4895)" fill="#F3A945" fill-opacity="0.5"/>
<path d="M32.9829 39.5652C40.4853 39.5652 46.5673 33.4838 46.5673 25.982C46.5673 18.4801 40.4853 12.3987 32.9829 12.3987C25.4804 12.3987 19.3984 18.4801 19.3984 25.982C19.3984 33.4838 25.4804 39.5652 32.9829 39.5652Z" fill="#88CD0C"/>
<path d="M29.1402 39.0097C28.2828 38.7576 27.4507 38.4209 26.6568 38.0037C27.5841 35.3215 27.7175 32.0335 25.9302 29.166C24.3916 26.6981 21.8786 25.2438 19.4668 24.6058C19.5532 23.7682 19.7167 22.9416 19.9545 22.1368C23.2866 22.6245 26.5529 24.8923 28.4825 28.446C30.4065 31.9898 30.5334 35.953 29.1402 39.0097Z" fill="#E9EFF4"/>
<path d="M39.4643 37.9194C33.4034 41.2096 25.9449 39.4108 22 33.9775C26.1559 37.6756 32.3443 38.5722 37.5151 35.7653C44.1085 32.186 46.5515 23.9398 42.9718 17.3469C42.6825 16.8144 42.3633 16.3092 42.0161 15.8319C43.1594 16.8488 44.149 18.0784 44.9216 19.5009C48.5012 26.0939 46.0578 34.3401 39.4643 37.9194Z" fill="#72AB0B"/>
<path d="M29.7243 37.3489C29.5762 37.9252 29.381 38.4806 29.1398 39.0093C29.0862 38.9934 29.0327 38.9776 28.9796 38.9612C28.5342 38.8234 28.0954 38.6637 27.6656 38.4815C27.5916 38.4502 26.6485 38.0263 26.6564 38.0033C26.7909 37.614 26.909 37.2116 27.0063 36.7999C27.8899 37.0745 28.8008 37.2588 29.7243 37.3489Z" fill="#D3DCE2"/>
<path d="M46.5066 27.2749C46.4278 28.0966 46.2742 28.908 46.0483 29.6985C42.7918 29.1463 39.6233 26.9004 37.7353 23.4226C35.8424 19.9362 35.6882 16.0447 37.0108 13.0093C37.8097 13.2575 38.5855 13.5784 39.328 13.9699C38.5494 16.318 38.3898 19.1812 39.5845 21.7978C40.9798 24.8556 43.7722 26.5592 46.5066 27.2749Z" fill="#E9EFF4"/>
<path d="M46.5063 27.2746C46.4759 27.5924 46.4349 27.8967 46.3839 28.2111C46.3647 28.3294 46.0715 29.7021 46.0482 29.6981C45.2236 29.5582 44.4046 29.31 43.6107 28.9601C43.9355 28.1629 44.1843 27.3368 44.3538 26.4933C45.0574 26.8273 45.784 27.0854 46.5063 27.2746Z" fill="#D3DCE2"/>
<path d="M46.5064 27.2745C46.4965 27.3773 46.4856 27.4796 46.4736 27.5818C46.4675 27.6332 46.461 27.684 46.4544 27.7354C46.4473 27.7862 46.4407 27.8376 46.4331 27.8885C46.4271 27.9322 46.4205 27.976 46.4139 28.0197C46.4047 28.0836 46.3943 28.147 46.3839 28.211C46.3729 28.2739 46.362 28.3373 46.3505 28.4002C46.3472 28.4182 46.3439 28.4363 46.3407 28.4543C46.3286 28.5194 46.3161 28.5844 46.3029 28.6495C46.3029 28.65 46.3029 28.6506 46.3024 28.6511C46.2887 28.72 46.2745 28.7883 46.2592 28.8567C46.2504 28.8994 46.2406 28.942 46.2307 28.9846C46.222 29.0234 46.2132 29.0623 46.2039 29.101C46.1924 29.1514 46.1799 29.2016 46.1673 29.2514C46.1547 29.3011 46.1421 29.3509 46.129 29.4006C46.1033 29.5001 46.0765 29.5991 46.0481 29.698C45.2235 29.5581 44.4045 29.3098 43.6106 28.96C43.9354 28.1628 44.1842 27.3367 44.3536 26.4932C45.0574 26.8273 45.7841 27.0854 46.5064 27.2745Z" fill="#D3DCE2"/>
<path d="M45.3002 19.3234C43.549 16.0981 40.6671 13.7329 37.1707 12.6431C37.1565 12.6378 37.1422 12.6334 37.1278 12.6298C37.0773 12.6142 37.0272 12.598 36.9765 12.5829C33.3924 11.5213 29.6093 11.9187 26.3241 13.7021C23.0389 15.4855 20.6448 18.4412 19.583 22.0251C18.5212 25.6089 18.9187 29.3917 20.7022 32.6766C22.4858 35.9614 25.4418 38.3553 29.026 39.417C30.3422 39.8069 31.6847 40 33.0201 40C35.321 40 37.5996 39.4263 39.6783 38.2979C40.4683 37.869 41.2179 37.3644 41.9062 36.7982C42.0811 36.6543 42.1063 36.3959 41.9624 36.221C41.8185 36.0462 41.5601 36.021 41.3851 36.1649C40.7371 36.698 40.0312 37.1733 39.287 37.5772C36.3345 39.18 32.9551 39.5927 29.7189 38.7572C31.0093 35.5388 30.7005 31.6562 28.8612 28.2684C28.1302 26.9223 27.2023 25.7303 26.103 24.7258C25.9358 24.573 25.6764 24.5847 25.5236 24.7519C25.3708 24.9191 25.3825 25.1785 25.5497 25.3312C26.5815 26.274 27.4531 27.3939 28.1404 28.6597C29.8781 31.8604 30.1636 35.5201 28.9277 38.5278C28.322 38.3313 27.7366 38.0937 27.1742 37.818C27.8016 35.8261 28.3798 32.3096 26.2966 28.9672C24.4944 26.0766 21.6633 24.8348 19.9319 24.3233C20.0063 23.7531 20.1179 23.1843 20.2681 22.6201C21.2744 22.807 22.2657 23.16 23.2197 23.6725C23.2815 23.7057 23.3479 23.7215 23.4135 23.7215C23.5595 23.7215 23.7011 23.6431 23.775 23.5054C23.8822 23.3059 23.8074 23.0573 23.6078 22.9501C22.6063 22.4121 21.5646 22.0364 20.5049 21.8301C21.5637 18.6492 23.7546 16.03 26.7154 14.4228C29.7272 12.7877 33.1835 12.3908 36.4785 13.2943C35.2572 16.4817 35.5877 20.3107 37.3933 23.6364C39.1938 26.953 42.2174 29.3145 45.5473 30.0328C45.0717 31.5116 44.33 32.9206 43.3274 34.1862C43.1868 34.3637 43.2168 34.6217 43.3943 34.7623C43.5718 34.9028 43.8298 34.8729 43.9704 34.6954C47.4579 30.2926 47.9799 24.2588 45.3002 19.3234ZM25.6004 29.401C27.4635 32.39 27.0001 35.5563 26.4367 37.4261C24.3373 36.2254 22.6059 34.4639 21.423 32.2852C20.2196 30.0687 19.6867 27.6115 19.8493 25.155C21.4688 25.6566 23.9894 26.8168 25.6004 29.401ZM44.5794 19.7147C45.7781 21.9223 46.2957 24.3635 46.1572 26.7624C44.2996 26.1944 41.4287 24.8292 39.9759 21.6456C38.7277 18.9118 39.1305 16.2014 39.5906 14.5881C41.6788 15.7885 43.4012 17.5446 44.5794 19.7147ZM38.1141 23.2451C36.4123 20.1106 36.1037 16.5112 37.2638 13.5359C37.8106 13.7222 38.3408 13.9416 38.8516 14.1933C38.3381 15.9036 37.8304 18.9214 39.2298 21.9862C40.8573 25.5526 44.0894 27.0154 46.0829 27.5961C46.0153 28.1503 45.9126 28.7005 45.7748 29.2432C42.655 28.5896 39.8113 26.3713 38.1141 23.2451Z" fill="black"/>
</svg>
