<svg width="61" height="42" viewBox="0 0 61 42" fill="none" xmlns="http://www.w3.org/2000/svg">
<path d="M12.8605 37.5552C12.9647 35.1007 15.0408 33.1108 17.4976 33.1108H52.6296C55.0864 33.1108 56.9935 35.1007 56.8893 37.5552C56.7851 40.0098 54.709 41.9996 52.2522 41.9996H17.1202C14.6634 41.9996 12.7563 40.0098 12.8605 37.5552Z" fill="#F3A945" fill-opacity="0.5"/>
<path d="M53.6028 25.312C53.6689 23.7547 54.9861 22.4922 56.5449 22.4922C58.1036 22.4922 59.3137 23.7547 59.2475 25.312L59.2174 26.0215C59.1513 27.5789 57.8341 28.8413 56.2753 28.8413C54.7166 28.8413 53.5066 27.5789 53.5727 26.0215L53.6028 25.312Z" fill="#F3A945" fill-opacity="0.5"/>
<path d="M29.1114 2.81982C29.1775 1.26247 30.4947 0 32.0534 0C33.6122 0 34.8222 1.26248 34.7561 2.81982L34.726 3.52932C34.6598 5.08666 33.3426 6.34914 31.7839 6.34914C30.2251 6.34914 29.0151 5.08666 29.0812 3.52932L29.1114 2.81982Z" fill="#F3A945" fill-opacity="0.5"/>
<path d="M1.11149 15.8198C1.1776 14.2625 2.49481 13 4.05356 13C5.6123 13 6.82232 14.2625 6.7562 15.8198L6.72608 16.5293C6.65997 18.0867 5.34276 19.3491 3.78401 19.3491C2.22527 19.3491 1.01525 18.0867 1.08137 16.5293L1.11149 15.8198Z" fill="#F3A945" fill-opacity="0.5"/>
<rect width="44.0288" height="8.8968" rx="4.4484" transform="matrix(1 0 -0.0424159 0.9991 7.45508 22)" fill="#F3A945" fill-opacity="0.5"/>
<rect width="44.0288" height="8.8968" rx="4.4484" transform="matrix(1 0 -0.0424159 0.9991 11.9235 9.4895)" fill="#F3A945" fill-opacity="0.5"/>
<path d="M45.2588 25.5701L45.5612 25.8722C45.3807 28.7222 44.3218 31.3335 42.6524 33.4386C41.8682 34.4273 40.9137 35.1705 39.8878 35.8703C37.6574 37.3919 34.9569 38.3124 32 38.3124C29.8424 38.3124 27.9697 37.8632 26.1578 36.9676C26.075 36.9267 25.8785 36.7263 25.8785 36.7263C25.8785 36.7263 29.0728 33.9218 30.2349 31.9082C31.35 29.9772 32.1877 27.7037 32.5732 25.5157C32.5902 25.4194 32.6563 25.3385 32.7482 25.3051C36.7759 23.8466 41.2666 23.9634 45.2588 25.5701V25.5701Z" fill="#88CD0C"/>
<path d="M45.5598 24.108C43.393 23.2828 41.1596 23.1022 38.8359 23.1022C36.6058 23.1022 34.4074 23.365 32.32 24.1252C32.2281 24.1585 31.9481 24.171 31.8732 24.1081C28.5958 21.3497 26.3489 17.5303 25.7435 13.2696L25.9745 12.8173C27.7902 11.9166 29.836 11.4102 32 11.4102C35.0522 11.4102 37.8692 12.4164 40.1376 14.1152L42.4011 17.2368L44.9591 20.899C45.2823 21.9217 45.4879 22.9967 45.5598 24.108V24.108Z" fill="#88CD0C"/>
<path d="M31.352 25.428C30.6012 29.6455 28.4083 33.6544 25.0209 36.3084L24.6988 36.1241C21.0495 33.6889 18.6646 29.7221 18.6646 25.0048C18.6646 21.8234 19.6234 18.9913 21.4013 16.6748C21.6993 16.2865 21.9696 15.8179 22.3165 15.4657C22.9639 14.8083 23.6778 14.2164 24.4473 13.7012C24.8165 15.9915 25.815 18.1665 26.9771 20.1795C28.0922 22.1105 29.5556 23.7432 31.2575 25.1711C31.3324 25.2339 31.369 25.3318 31.352 25.428V25.428Z" fill="#88CD0C"/>
<path d="M26.8752 34.1922C26.2288 34.8998 25.5852 35.5698 24.8173 36.1714L24.4635 36.3083C20.8142 33.8731 18.4102 29.7174 18.4102 25C18.4102 24.5433 18.4327 24.0918 18.4767 23.6466L19.7721 25.0563C19.7721 25.0563 23.1297 31.6858 26.8752 34.1922Z" fill="#72AB0B"/>
<path d="M44.0897 18.7891L36.788 18.392L28.5912 20.06L27.4018 19.025L27.1245 17.2299C29.6106 16.0605 32.4175 15.0431 35.2428 14.9665C37.5373 14.9043 39.7894 15.4066 41.8146 16.1022L42.6388 16.5447C43.1928 17.2403 43.6795 17.9917 44.0897 18.7891V18.7891Z" fill="#FFD064"/>
<path d="M29.3903 30.4917C29.1663 30.9213 29.3029 31.5735 29.0434 31.9825C28.736 32.4669 28.0256 32.7038 27.6704 33.1566C23.4513 30.1914 21.8209 28.2216 21.8209 28.2216L19.2589 20.264L20.1312 19.5138L20.7065 17.4421C21.0512 19.815 22.3686 21.9262 23.7148 23.9958C25.3193 26.4786 27.1552 28.979 29.3903 30.4917V30.4917Z" fill="#FFD064"/>
<path d="M20.5977 22.3241C20.5977 23.2587 20.6857 24.1725 20.8531 25.0563C20.1137 23.5354 19.5734 21.9528 19.2802 20.3794L19.2589 20.264C19.627 19.2697 20.1158 18.322 20.7065 17.4421C20.7765 17.9256 20.8766 18.4117 21.0034 18.8968C20.7382 19.9944 20.5977 21.1418 20.5977 22.3241V22.3241Z" fill="#FFC250"/>
<path d="M42.6339 25.0562C42.3921 27.4297 41.6042 29.7935 40.5301 32.1314C39.6278 34.0946 38.6186 35.7378 37.2908 37.2696C34.6439 38.4524 32.3947 38.5839 29.5647 37.9026L30.0328 37.5832C33.902 34.9506 36.1289 29.5021 36.6578 24.8707C37.2112 24.793 37.488 24.2711 38.0448 24.247C39.1062 24.2005 40.1919 24.1799 41.2469 24.3308C41.7888 24.408 42.0979 24.9266 42.6339 25.0562V25.0562Z" fill="#FFD064"/>
<path d="M42.8746 33.1505C41.4802 35.0082 39.6208 36.497 37.4692 37.4441L32.1431 38.2285L28.8548 38.2237C27.8524 37.986 26.8931 37.6372 25.9904 37.1908L26.8067 35.8701L28.2681 34.9995C30.0575 35.8986 32.0656 36.4022 34.1875 36.4022C37.4911 36.4022 40.5192 35.1805 42.8746 33.1505Z" fill="#72AB0B"/>
<path d="M38.9508 35.5131C38.486 36.1939 37.9362 36.6364 37.4117 37.2418C36.3563 37.7106 35.286 38.24 34.1379 38.4207C33.1572 38.5751 32.1587 38.6236 31.1693 38.5646C31.1693 38.5646 29.9503 38.2986 29.224 38.1305C29.1917 38.1233 29.1272 38.1075 29.1272 38.1075L29.3231 37.904C30.0493 37.4096 30.7335 36.7977 31.3689 36.0988C32.2779 36.2978 33.2212 36.4023 34.1875 36.4023C35.8637 36.4023 37.4688 36.0878 38.9508 35.5131V35.5131Z" fill="#FFC250"/>
<path d="M36.4551 23.8376C36.1729 28.559 33.428 35.1114 29.3231 37.9041L28.854 38.2232C29.2338 38.3131 29.728 38.1532 30.1138 38.21C30.4996 38.2668 30.7767 38.5401 31.1693 38.5639C33.353 36.7516 34.8471 34.2913 35.7495 32.4418C37.098 29.678 37.9302 26.6571 38.0929 23.9355L38.1419 23.1167L36.5042 23.0188L36.4551 23.8376Z" fill="#FAF8F8"/>
<path d="M42.9593 23.3877L41.3218 23.2875L41.2717 24.1063C40.9555 29.2711 38.3299 34.737 34.5826 38.0312L34.1381 38.4219L36.2854 37.5816L37.4651 37.4452C38.7926 35.9132 39.941 34.1203 40.8435 32.1568C42.0353 29.5639 42.7495 26.8148 42.9092 24.2066L42.9593 23.3877Z" fill="#FAF8F8"/>
<path d="M45.5899 24.9999C45.5899 25.0836 45.5888 25.1673 45.5871 25.2504C45.585 25.357 45.5817 25.4637 45.5773 25.5698C45.5768 25.5818 45.5762 25.5933 45.5757 25.6053C45.574 25.642 45.5724 25.6786 45.5702 25.7152C45.5702 25.7174 45.5702 25.7196 45.5696 25.7218C45.5685 25.7448 45.5669 25.7677 45.5658 25.7907C45.5647 25.8181 45.5631 25.8454 45.5614 25.8722L45.2842 25.7612C41.292 24.1545 36.9137 24.0812 32.886 25.5397C32.7941 25.5731 32.7279 25.654 32.711 25.7502C32.3254 27.9383 31.5675 30.0219 30.4524 31.9529C29.2903 33.9665 27.7896 35.7263 25.9904 37.1909L25.6551 36.4133C25.6551 36.4133 24.475 36.317 24.463 36.3088L24.4635 36.3082L24.6987 36.1239C28.086 33.4699 30.3386 29.7151 31.0895 25.4976C31.1064 25.4013 31.0698 25.3034 30.9949 25.2406C29.293 23.8127 27.8673 22.1141 26.7522 20.1831C25.5901 18.17 24.8163 15.9913 24.4471 13.7009C24.9365 13.3733 25.4473 13.0787 25.9746 12.8167C25.9743 12.8168 26.0167 13.1144 26.0167 13.1147C26.6221 17.3754 28.7472 21.2041 32.0246 23.9625C32.0996 24.0254 32.2024 24.0424 32.2943 24.009C34.3817 23.2488 36.5653 22.8638 38.7955 22.8638C41.1192 22.8638 43.3931 23.2827 45.5598 24.108C45.5642 24.1769 45.568 24.2452 45.5718 24.3147C45.5718 24.3196 45.5724 24.3245 45.5724 24.3295C45.5762 24.4033 45.5795 24.4777 45.5822 24.552C45.5844 24.6264 45.5866 24.7008 45.5877 24.7757C45.5893 24.8501 45.5899 24.925 45.5899 24.9999V24.9999Z" fill="#FAF8F8"/>
<path d="M44.893 20.8675L44.9595 20.899C44.7282 20.1673 44.4369 19.4622 44.0909 18.7898C41.5127 17.9503 38.7854 17.904 36.81 18.0423C33.6949 18.2606 30.615 19.0539 28.1376 20.2761L27.402 20.6391L28.1278 22.1104L28.8635 21.7475C33.1713 19.6221 40.3451 18.7118 44.893 20.8675Z" fill="#FAF8F8"/>
<path d="M41.8879 16.287L42.6391 16.545C41.9127 15.6323 41.072 14.8148 40.1377 14.1151C38.1237 13.7021 35.9641 13.5907 33.7791 13.7941C30.9715 14.0555 28.2666 14.809 25.9569 15.9731C25.5523 16.1771 25.3897 16.6704 25.5936 17.0749C25.7378 17.361 26.0267 17.5262 26.3267 17.5262C26.4508 17.5262 26.5768 17.4978 26.6952 17.4382C31.2607 15.1372 37.224 14.6854 41.8879 16.287V16.287Z" fill="#FAF8F8"/>
<path d="M22.2099 15.7121L22.2089 15.5765C21.8872 15.9107 21.6109 16.6139 21.3244 16.9795C21.1181 17.2428 20.8928 17.1614 20.7061 17.4398C21.0387 19.6778 21.9742 22.0264 23.4598 24.3248C25.1767 26.9812 27.4497 29.2803 29.8602 30.7988L30.5543 31.236L31.4287 29.8478L30.7346 29.4106C26.5748 26.7902 22.2487 20.9498 22.2099 15.7121V15.7121Z" fill="#FAF8F8"/>
<path d="M19.1979 20.8441L19.1763 20.7286L19.2588 22.8603L18.5526 23.6467C19.211 25.4815 20.157 27.2985 21.3452 28.9853C23.0328 31.3812 25.0838 33.3503 27.3399 34.8217L27.9464 35.3092L28.8768 33.9573L28.1898 33.5092C25.1102 31.5006 22.492 28.4287 20.853 25.0564C20.1138 23.5351 19.4912 22.4175 19.1979 20.8441V20.8441Z" fill="#FAF8F8"/>
<path d="M33.2966 36.373C32.677 37.149 31.9694 37.9004 31.1693 38.5638C30.3774 38.5162 29.6036 38.4008 28.8544 38.2231L29.323 37.9042C30.0493 37.4099 30.7334 36.7979 31.3684 36.099C31.9962 36.2363 32.6398 36.3287 33.2966 36.373Z" fill="#F0E9E6"/>
<path d="M38.9501 35.5132C38.4858 36.194 37.9893 36.8399 37.4648 37.4453C36.4181 37.9058 35.303 38.2377 34.1382 38.422L34.5822 38.0315C35.2035 37.4852 35.7936 36.8798 36.3476 36.2252C37.2477 36.0765 38.1183 35.8358 38.9501 35.5132V35.5132Z" fill="#F0E9E6"/>
<path d="M22.2093 15.6688C21.6859 16.6772 21.278 17.76 21.0034 18.897C20.8766 18.4075 20.7776 17.9214 20.7059 17.4401C21.1522 16.7751 21.6553 16.1517 22.2087 15.5769L22.2093 15.6688Z" fill="#F0E9E6"/>
<path d="M28.2681 34.9998C27.5735 35.7895 26.8134 36.5212 25.9903 37.1912C25.4628 36.9307 24.9521 36.6356 24.4629 36.309C24.4629 36.3087 24.6983 36.1245 24.6986 36.1242C25.3767 35.5932 26.0089 35.0179 26.593 34.4032C24.6067 32.9819 22.7769 31.1181 21.2653 28.9722C20.077 27.2851 19.1352 25.4815 18.4768 23.6467C18.5933 22.4682 18.8607 21.3345 19.2588 20.2643L19.2802 20.3797C19.5738 21.953 20.1142 23.5357 20.8541 25.0576V25.0582C21.577 28.8666 23.7826 32.1227 26.8221 34.1571C27.2607 34.4508 27.7163 34.7187 28.1877 34.9594C28.2145 34.973 28.2413 34.9867 28.2681 34.9998V34.9998Z" fill="#F0E9E6"/>
<path d="M41.8995 15.1005C39.2553 12.4563 35.7395 11 32 11C28.2605 11 24.7447 12.4563 22.1005 15.1005C19.4563 17.7448 18 21.2605 18 25C18 28.7395 19.4563 32.2552 22.1005 34.8995C24.7447 37.5437 28.2605 39 32 39C36.0844 39 39.9554 37.2221 42.6204 34.1221C42.7681 33.9504 42.7486 33.6914 42.5768 33.5437C42.405 33.3961 42.1461 33.4155 41.9984 33.5874C41.1182 34.6113 40.0977 35.4812 38.9784 36.1802C41.1807 33.1515 42.7466 29.1741 43.1997 25.4992C43.8486 25.6743 44.4901 25.8879 45.1203 26.1415L45.1301 26.1454C44.9469 28.2648 44.2566 30.3036 43.106 32.0996C42.9838 32.2903 43.0394 32.544 43.2301 32.6662C43.4208 32.7883 43.6745 32.7328 43.7968 32.5421C45.2381 30.2922 46 27.6842 46 25C46 21.2605 44.5437 17.7448 41.8995 15.1005V15.1005ZM41.7437 16.6749L42.3861 16.8955C42.6923 17.287 42.9767 17.6963 43.2378 18.1214C37.9281 16.9551 33.2823 17.7136 28.7511 19.5395C28.3379 18.8656 27.9727 18.1632 27.6575 17.4376C31.9992 15.5164 37.482 15.2113 41.7437 16.6749ZM29.2038 20.2376C33.8203 18.4393 38.4641 17.6971 43.7984 19.1311C43.9654 19.4655 44.1193 19.8075 44.2579 20.1573C39.8786 18.493 33.8098 19.2258 29.6971 20.9221C29.527 20.6978 29.3623 20.4697 29.2038 20.2376V20.2376ZM38.2736 13.4115C36.7986 13.2514 35.2811 13.2422 33.7411 13.3856C32.7394 13.4789 31.739 13.6354 30.7679 13.8509C30.5468 13.9 30.4073 14.119 30.4564 14.3401C30.4933 14.4947 30.695 14.7089 30.9457 14.6517C31.8834 14.4437 32.8495 14.2925 33.8172 14.2024C35.9275 14.006 37.9921 14.1063 39.9556 14.4995C40.4322 14.8615 40.884 15.2546 41.3068 15.6768C39.2124 15.0621 36.8655 14.818 34.469 14.9724C31.9647 15.1337 29.5133 15.7215 27.3491 16.6766C27.2523 16.4204 27.1619 16.1616 27.0774 15.9005C27.7389 15.612 28.4328 15.3535 29.1456 15.1309C29.3618 15.0633 29.4823 14.8333 29.4148 14.6171C29.3473 14.4009 29.1174 14.2803 28.901 14.3479C28.1933 14.569 27.5033 14.8245 26.8426 15.1086C26.6623 14.441 26.5212 13.7601 26.423 13.0682L26.4219 13.0608C28.1169 12.2657 30.0073 11.8203 32 11.8203C34.2696 11.8203 36.407 12.397 38.2736 13.4115ZM24.1572 14.4145C24.5673 16.5133 25.3186 18.5203 26.3972 20.3883C27.5215 22.3356 28.9592 24.0565 30.6714 25.5044C30.4943 26.4726 30.2336 27.4165 29.8963 28.3282C26.3283 25.6135 22.6762 20.4346 22.6314 15.7398C23.1052 15.2605 23.6151 14.8171 24.1572 14.4145V14.4145ZM27.5794 32.5859C25.3463 30.941 23.335 28.6638 21.8881 26.1336C21.7756 25.937 21.525 25.8688 21.3284 25.9811C21.1318 26.0936 21.0636 26.3442 21.176 26.5408C22.6966 29.1998 24.7292 31.5043 27.0719 33.2311C26.8976 33.442 26.7181 33.6489 26.5334 33.8517C24.7039 32.4892 23.0037 30.7274 21.6006 28.7355C20.4579 27.1133 19.5487 25.3793 18.8969 23.5808C18.9607 22.988 19.0642 22.407 19.2042 21.8402C19.4737 22.8289 19.8351 23.8215 20.2846 24.8051C20.3535 24.9559 20.5023 25.045 20.6579 25.045C20.7149 25.045 20.7729 25.033 20.8281 25.0078C21.0342 24.9136 21.1248 24.6703 21.0307 24.4642C20.4001 23.0842 19.9505 21.6883 19.6946 20.3153L19.6903 20.2921C19.9208 19.6913 20.1941 19.1116 20.5065 18.5566C20.952 20.5435 21.8268 22.554 23.1153 24.5476C24.6661 26.947 26.6926 29.0888 28.8503 30.6163C28.4732 31.3008 28.0486 31.9588 27.5794 32.5859V32.5859ZM29.2325 29.8816C27.1927 28.4181 25.2776 26.3818 23.8043 24.1022C22.3846 21.9058 21.4906 19.6968 21.1452 17.534C21.3679 17.2112 21.6042 16.8984 21.854 16.5972C22.049 18.7571 22.8988 21.0846 24.3396 23.3844C25.7501 25.6358 27.6029 27.6598 29.5818 29.1179C29.4715 29.3754 29.3553 29.6302 29.2325 29.8816V29.8816ZM18.8339 25.5818C19.4126 26.8354 20.1139 28.0494 20.9299 29.2079C22.3617 31.2404 24.0944 33.0439 25.9618 34.4493C25.4858 34.9232 24.9803 35.3714 24.4458 35.7902L24.4436 35.792C21.1944 33.5102 19.0181 29.8004 18.8339 25.5818ZM37.5893 24.9559C36.8187 29.8968 35.1213 34.3409 31.0184 38.1432C30.631 38.1145 30.2484 38.0685 29.871 38.0069C33.6518 35.2209 36.1537 29.5029 36.7496 25.0374C37.029 25.0034 37.309 24.9758 37.5893 24.9559V24.9559ZM40.7773 25.0315C40.2258 29.7797 37.7165 34.7192 34.3118 37.7122L33.945 38.0346C33.3716 38.12 32.7897 38.168 32.2027 38.177C36.2045 34.0921 37.8081 29.3217 38.4191 24.9177C39.2063 24.9005 39.9942 24.9387 40.7773 25.0315V25.0315ZM29.0924 37.554L28.7641 37.7772C28.0657 37.6003 27.3896 37.3671 26.7404 37.0834C30.0453 34.2316 32.3347 30.2123 33.1011 25.8985C34.0186 25.571 34.9564 25.3264 35.9039 25.1623C35.2621 29.5319 32.7856 35.0414 29.0924 37.554V37.554ZM40.4708 31.9855C39.6022 33.8753 38.5026 35.5988 37.2025 37.1099C36.6598 37.3431 36.1011 37.54 35.5302 37.6987C38.7442 34.5771 41.095 29.6408 41.59 25.1479C41.8597 25.1932 42.1286 25.2451 42.3965 25.3035C42.1286 27.5174 41.4661 29.8199 40.4708 31.9855V31.9855ZM41.3526 24.2803C38.5139 23.8611 35.5057 24.1499 32.7465 25.1542C32.5179 25.237 32.3495 25.438 32.307 25.6791C31.5693 29.9308 29.2827 33.9142 25.9305 36.6962C25.6702 36.5606 25.4146 36.4171 25.1649 36.265C28.4851 33.5807 30.7414 29.7913 31.4932 25.5694C31.5358 25.3299 31.4459 25.0835 31.2584 24.9262C29.5935 23.5296 28.197 21.8649 27.1076 19.9781C26.014 18.084 25.2715 16.0411 24.8965 13.9028C25.1428 13.7445 25.3951 13.5949 25.6522 13.453C26.3006 17.6292 28.491 21.5375 31.7604 24.2763C31.8846 24.381 32.0412 24.4359 32.2 24.4359C32.2789 24.4359 32.3584 24.4223 32.4347 24.3946C34.4767 23.6509 36.6168 23.2738 38.7953 23.2738C39.2141 23.2738 39.6369 23.288 40.052 23.316C40.2775 23.3317 40.4736 23.1603 40.4888 22.9343C40.504 22.7083 40.3331 22.5128 40.1071 22.4976C39.6737 22.4684 39.2324 22.4536 38.7953 22.4536C36.5469 22.4536 34.3377 22.8383 32.2276 23.5972C31.5027 22.9811 30.8365 22.3093 30.2319 21.5911C34.319 19.9765 40.5406 19.3152 44.62 21.1983C44.8447 21.943 45.0051 22.7153 45.0949 23.5087C44.0975 23.1656 43.0756 22.9025 42.048 22.7274C41.8243 22.6893 41.6127 22.8396 41.5747 23.0629C41.5367 23.2861 41.6869 23.4981 41.9102 23.5361C43.0103 23.7235 44.104 24.0162 45.1657 24.4042C45.176 24.6832 45.1844 24.8908 45.1764 25.2831C43.933 24.8044 42.6508 24.47 41.3526 24.2803V24.2803Z" fill="black"/>
</svg>
