<?xml version="1.0" encoding="UTF-8"?>
<svg xmlns="http://www.w3.org/2000/svg" xmlns:xlink="http://www.w3.org/1999/xlink" viewBox="0 0 50 50" width="50px" height="50px">
<g id="surface38261968">
<path style=" stroke:none;fill-rule:nonzero;fill:rgb(100%,100%,100%);fill-opacity:1;" d="M 5.070312 45.105469 L 7.878906 34.863281 C 6.144531 31.863281 5.234375 28.460938 5.238281 24.976562 C 5.242188 14.078125 14.113281 5.207031 25.015625 5.207031 C 30.304688 5.210938 35.269531 7.269531 39.003906 11.007812 C 42.738281 14.742188 44.792969 19.710938 44.792969 24.992188 C 44.789062 35.894531 35.914062 44.765625 25.015625 44.765625 C 25.011719 44.765625 25.015625 44.765625 25.015625 44.765625 L 25.007812 44.765625 C 21.695312 44.761719 18.445312 43.933594 15.554688 42.355469 Z M 5.070312 45.105469 "/>
<path style=" stroke:none;fill-rule:nonzero;fill:rgb(100%,100%,100%);fill-opacity:1;" d="M 5.070312 45.628906 C 4.933594 45.628906 4.800781 45.574219 4.699219 45.472656 C 4.570312 45.339844 4.519531 45.148438 4.570312 44.972656 L 7.316406 34.933594 C 5.613281 31.90625 4.714844 28.46875 4.714844 24.980469 C 4.722656 13.789062 13.824219 4.6875 25.015625 4.6875 C 30.441406 4.691406 35.539062 6.804688 39.371094 10.636719 C 43.207031 14.476562 45.316406 19.574219 45.3125 24.992188 C 45.308594 36.183594 36.203125 45.285156 25.015625 45.285156 C 21.691406 45.285156 18.40625 44.464844 15.488281 42.914062 L 5.203125 45.609375 C 5.160156 45.621094 5.117188 45.628906 5.070312 45.628906 Z M 5.070312 45.628906 "/>
<path style=" stroke:none;fill-rule:nonzero;fill:rgb(80.000001%,80.000001%,80.000001%);fill-opacity:1;" d="M 25.015625 5.207031 C 30.304688 5.210938 35.269531 7.269531 39.003906 11.007812 C 42.738281 14.742188 44.792969 19.710938 44.792969 24.992188 C 44.789062 35.894531 35.914062 44.765625 25.015625 44.765625 L 25.007812 44.765625 C 21.695312 44.761719 18.445312 43.933594 15.554688 42.355469 L 5.070312 45.105469 L 7.878906 34.863281 C 6.144531 31.863281 5.234375 28.460938 5.238281 24.976562 C 5.242188 14.078125 14.113281 5.207031 25.015625 5.207031 M 25.015625 44.765625 L 25.015625 44.765625 M 25.015625 44.765625 L 25.015625 44.765625 M 25.015625 4.167969 C 13.539062 4.167969 4.199219 13.503906 4.195312 24.976562 C 4.195312 28.484375 5.078125 31.941406 6.757812 35 L 4.066406 44.832031 C 3.96875 45.191406 4.066406 45.574219 4.332031 45.839844 C 4.527344 46.039062 4.796875 46.148438 5.070312 46.148438 C 5.160156 46.148438 5.246094 46.136719 5.335938 46.117188 L 15.425781 43.46875 C 18.371094 45 21.675781 45.804688 25.007812 45.808594 C 36.488281 45.808594 45.828125 36.472656 45.835938 24.996094 C 45.835938 19.433594 43.671875 14.203125 39.742188 10.269531 C 35.808594 6.335938 30.582031 4.167969 25.015625 4.167969 Z M 25.015625 4.167969 "/>
<path style=" stroke:none;fill-rule:nonzero;fill:rgb(25.098041%,76.47059%,31.764707%);fill-opacity:1;" d="M 36.640625 13.367188 C 33.539062 10.261719 29.410156 8.550781 25.019531 8.546875 C 15.953125 8.546875 8.578125 15.917969 8.574219 24.980469 C 8.574219 28.085938 9.441406 31.105469 11.089844 33.726562 L 11.480469 34.347656 L 9.820312 40.410156 L 16.039062 38.777344 L 16.640625 39.136719 C 19.164062 40.632812 22.058594 41.425781 25.007812 41.425781 L 25.015625 41.425781 C 34.074219 41.425781 41.449219 34.054688 41.453125 24.992188 C 41.453125 20.601562 39.746094 16.472656 36.640625 13.367188 Z M 36.640625 13.367188 "/>
<path style=" stroke:none;fill-rule:evenodd;fill:rgb(100%,100%,100%);fill-opacity:1;" d="M 20.070312 16.714844 C 19.699219 15.890625 19.3125 15.875 18.957031 15.859375 C 18.667969 15.847656 18.339844 15.847656 18.011719 15.847656 C 17.683594 15.847656 17.148438 15.972656 16.695312 16.464844 C 16.242188 16.960938 14.964844 18.15625 14.964844 20.585938 C 14.964844 23.019531 16.734375 25.367188 16.980469 25.699219 C 17.226562 26.027344 20.398438 31.175781 25.421875 33.15625 C 29.597656 34.804688 30.445312 34.476562 31.351562 34.394531 C 32.257812 34.3125 34.277344 33.199219 34.6875 32.042969 C 35.101562 30.890625 35.101562 29.902344 34.976562 29.695312 C 34.851562 29.488281 34.523438 29.367188 34.03125 29.117188 C 33.535156 28.871094 31.105469 27.675781 30.652344 27.511719 C 30.199219 27.347656 29.871094 27.265625 29.539062 27.757812 C 29.210938 28.253906 28.265625 29.367188 27.976562 29.695312 C 27.6875 30.027344 27.398438 30.066406 26.90625 29.820312 C 26.410156 29.570312 24.820312 29.050781 22.929688 27.367188 C 21.460938 26.058594 20.472656 24.441406 20.183594 23.945312 C 19.894531 23.453125 20.152344 23.183594 20.398438 22.9375 C 20.621094 22.714844 20.894531 22.359375 21.140625 22.070312 C 21.386719 21.785156 21.46875 21.578125 21.632812 21.246094 C 21.800781 20.917969 21.714844 20.628906 21.59375 20.382812 C 21.472656 20.132812 20.511719 17.691406 20.070312 16.714844 Z M 20.070312 16.714844 "/>
</g>
</svg>
